<svg width="45" height="36" xmlns="http://www.w3.org/2000/svg"><path d="M12.927 18.056a4.314 4.314 0 00-4.308 4.31 4.313 4.313 0 004.308 4.306 4.313 4.313 0 004.308-4.307 4.314 4.314 0 00-4.308-4.309m0 9.974a5.672 5.672 0 01-5.665-5.665 5.671 5.671 0 015.665-5.666 5.671 5.671 0 015.665 5.666 5.672 5.672 0 01-5.665 5.665m-5.056 1.945c.122 0 .245.033.354.1a8.937 8.937 0 002.575 1.066c.304.074.52.347.52.661v1.863c0 .148.12.268.268.268h2.679a.265.265 0 00.267-.267v-1.864c0-.314.215-.586.52-.66a8.937 8.937 0 002.575-1.068.679.679 0 01.834.1l1.319 1.32a.271.271 0 00.379 0l1.895-1.896a.268.268 0 000-.378l-1.32-1.32a.679.679 0 01-.099-.834 8.947 8.947 0 001.068-2.575.677.677 0 01.66-.519h1.863a.269.269 0 00.191-.079.27.27 0 00.077-.189v-2.679a.267.267 0 00-.267-.268h-1.864a.678.678 0 01-.66-.52 8.947 8.947 0 00-1.068-2.575.68.68 0 01.099-.834l1.319-1.318a.272.272 0 00.079-.19.27.27 0 00-.079-.189l-1.894-1.895a.27.27 0 00-.379 0l-1.319 1.32a.68.68 0 01-.833.098 9.02 9.02 0 00-2.576-1.068.677.677 0 01-.519-.66v-1.863a.268.268 0 00-.268-.268h-2.679a.268.268 0 00-.268.268v1.863a.678.678 0 01-.52.66 8.98 8.98 0 00-2.575 1.068.68.68 0 01-.834-.099l-1.318-1.319a.268.268 0 00-.379 0l-1.895 1.895a.268.268 0 00-.079.19c0 .04.011.12.079.188l1.319 1.32a.68.68 0 01.099.833 8.962 8.962 0 00-1.068 2.576.68.68 0 01-.66.52H1.626a.268.268 0 00-.268.267v2.68c0 .147.12.267.268.267h1.863c.314 0 .586.214.66.52a8.98 8.98 0 001.068 2.574.678.678 0 01-.1.834l-1.318 1.32a.265.265 0 00-.079.19c0 .04.01.12.079.188l1.894 1.895a.268.268 0 00.38 0l1.318-1.319a.679.679 0 01.48-.199m6.396 5.316h-2.679c-.897 0-1.626-.73-1.626-1.626v-1.343a10.229 10.229 0 01-1.979-.82l-.951.95a1.614 1.614 0 01-1.149.476c-.435 0-.843-.169-1.15-.476l-1.894-1.895a1.61 1.61 0 01-.476-1.148c0-.434.169-.842.476-1.15l.951-.95a10.367 10.367 0 01-.821-1.98H1.626A1.627 1.627 0 010 23.704v-2.679c0-.897.729-1.626 1.626-1.626h1.343c.205-.686.479-1.349.821-1.979l-.95-.95a1.614 1.614 0 01-.476-1.15c0-.434.168-.843.476-1.149l1.895-1.894a1.607 1.607 0 011.148-.476c.434 0 .842.17 1.149.475l.951.951a10.325 10.325 0 011.979-.82v-1.344c0-.897.729-1.626 1.626-1.626h2.679c.896 0 1.626.73 1.626 1.626v1.344a10.28 10.28 0 011.978.82l.951-.95a1.614 1.614 0 011.149-.476c.435 0 .843.17 1.149.476l1.894 1.894c.308.306.477.715.477 1.15 0 .433-.169.841-.477 1.148l-.95.951c.342.631.616 1.293.821 1.98h1.344c.896 0 1.625.728 1.625 1.625v2.68c0 .433-.169.841-.476 1.148a1.617 1.617 0 01-1.15.476h-1.343a10.358 10.358 0 01-.821 1.978l.951.953c.307.305.476.713.476 1.148 0 .435-.169.843-.476 1.15l-1.895 1.894a1.61 1.61 0 01-1.148.476c-.434 0-.842-.168-1.149-.475l-.952-.952c-.631.342-1.293.616-1.979.82v1.345c0 .433-.169.842-.477 1.15a1.61 1.61 0 01-1.148.475m19.809-20.386a4.604 4.604 0 01-4.599-4.599 4.603 4.603 0 014.599-4.598 4.603 4.603 0 014.599 4.598 4.604 4.604 0 01-4.599 4.6m0-7.84a3.244 3.244 0 00-3.241 3.24 3.244 3.244 0 003.241 3.241 3.244 3.244 0 003.241-3.24 3.244 3.244 0 00-3.241-3.242m-3.974 9.078c.121 0 .244.033.354.101a6.893 6.893 0 001.982.821.68.68 0 01.519.66v1.466l2.172.065.065-1.53a.68.68 0 01.52-.66 6.881 6.881 0 001.982-.822.678.678 0 01.835.1l1.036 1.036a.067.067 0 00.092 0l1.49-1.49a.065.065 0 000-.092l-1.037-1.037a.68.68 0 01-.099-.834 6.89 6.89 0 00.822-1.982.677.677 0 01.659-.52h1.466l.065-2.172-1.531-.065a.678.678 0 01-.659-.519 6.901 6.901 0 00-.822-1.983.68.68 0 01.099-.834l1.037-1.036c.021-.022.021-.07 0-.093l-1.49-1.49a.066.066 0 00-.092 0L38.531 4.27a.678.678 0 01-.834.1 6.953 6.953 0 00-1.983-.823.678.678 0 01-.519-.659V1.423l-2.172-.066-.066 1.531a.677.677 0 01-.519.66 6.9 6.9 0 00-1.982.821.678.678 0 01-.835-.099l-1.035-1.037a.068.068 0 00-.094 0l-1.489 1.49c-.018.064-.013.08.001.092l1.036 1.037a.68.68 0 01.099.834 6.913 6.913 0 00-.822 1.983.68.68 0 01-.66.52h-1.465l-.065 2.171 1.53.065c.314 0 .587.215.66.52.168.697.444 1.364.822 1.982a.68.68 0 01-.099.834l-1.038 1.037c-.021.022-.021.07 0 .093l1.49 1.49a.068.068 0 00.093 0l1.036-1.038a.676.676 0 01.481-.2m5.027 4.47h-2.106a1.425 1.425 0 01-1.423-1.422v-.949a8.23 8.23 0 01-1.383-.574l-.672.671c-.538.538-1.474.538-2.012.001l-1.49-1.49a1.416 1.416 0 01-.416-1.006c0-.38.148-.738.416-1.006l.672-.672a8.226 8.226 0 01-.574-1.384h-.949a1.424 1.424 0 01-1.423-1.422V9.253c0-.784.638-1.422 1.423-1.422h.949c.149-.478.34-.94.574-1.384l-.671-.672a1.41 1.41 0 01-.417-1.006c0-.38.148-.737.417-1.006l1.489-1.489c.537-.538 1.474-.538 2.012 0l.671.671a8.24 8.24 0 011.384-.574v-.948C31.6.64 32.239 0 33.023 0h2.106c.785 0 1.423.64 1.423 1.424v.948a8.31 8.31 0 011.384.574l.671-.67c.537-.539 1.474-.539 2.012 0l1.49 1.49c.268.267.416.624.416 1.004s-.148.738-.416 1.006l-.672.672c.233.443.425.906.574 1.384h.949c.784 0 1.423.638 1.423 1.422v2.107c0 .784-.639 1.422-1.423 1.422h-.949c-.149.478-.341.94-.574 1.384l.672.672c.554.554.554 1.456.001 2.011l-1.491 1.491c-.537.535-1.473.537-2.012 0l-.671-.672a8.275 8.275 0 01-1.384.574v.95c0 .38-.148.736-.417 1.005a1.416 1.416 0 01-1.006.416" fill="#25D8B5" fill-rule="evenodd"/></svg>