<svg class="h-map-rotate" width="1025" height="986" xmlns="http://www.w3.org/2000/svg" xmlns:xlink="http://www.w3.org/1999/xlink"><defs><path id="a" d="M0 0h985v1024H0z"/></defs><g fill="none" fill-rule="evenodd"><g style="mix-blend-mode:screen"><g style="mix-blend-mode:soft-light" transform="rotate(-90 493 492.5)" opacity=".158"><mask id="b" fill="#fff"><use xlink:href="#a"/></mask><path d="M506.674.03c.519-.009 1.04-.015 1.56-.03l-1.573.021h.01l.003.01m256.475 128.447c3.06 1.808 4.6 1.519 5.12 1.308 2.932-1.187-.838-7.482-6.913-9.867-3.679-1.445-4.88.397-3.695 3.019.609 1.36 2.062 3.425 5.488 5.54m-137.134-69.24c1.924.804 4.07 1.049 5.464.627 3.27-.997 1.02-4.748-3.033-6.637-4.006-1.87-8.444-1.246-7.273 1.813.279.734 1.31 2.612 4.842 4.196m67.182 31.483c3.8 1.751 5.59 1.084 6.186.713 2.692-1.676-1.77-7.204-7.13-8.826-3.438-1.043-6.162-.018-4.572 3.115.701 1.386 2.571 3.532 5.516 4.998m259.077 261.948c.593.698 2.396 2.819 4.143 2.509 3.807-.69 1.186-12.414-3.64-16.296-2.59-2.077-5.038-.86-4.417 4.208.193 1.54.958 5.56 3.914 9.579m-194.9 595.569c-1.83 1.045-5.218 3.109-7.352 5.193-.33.338-.857.948-.73 1.248.745 1.744 15.49-6.58 16.264-9.185.422-1.431-3.92.31-8.181 2.744m136.793-658.32c.895.785 3.604 3.18 6.168 2.743 5.569-.947 2.026-13.713-5.186-18.703-4.28-2.972-8.205-1.5-7.043 4.91.528 2.92 2.434 7.563 6.061 11.05m85.578 208.847c5.285 1.004 7.71-14.933 1.851-22.612-3.56-4.662-6.91-.653-7.695 5.865-.38 3.144-.311 7.979 2.154 13.12.609 1.065 1.87 3.28 3.69 3.627m-124.79 362.81c-1.942 1.814-5.438 5.42-7.06 9.204-.468 1.231-.452 2.026.05 2.364 3.094 2.08 16.845-11.1 16.535-15.846-.16-2.404-4.43-.485-9.526 4.278m113.002-223.035c5.574 1.612 11.54-15.504 7.978-22.893-2.257-4.684-7.1-1.571-9.772 6.283-1.517 4.453-1.874 9.387-.932 12.878.334 1.053 1.03 3.242 2.726 3.732m-42.533 111.825c-1.594 2.466-4.311 7.347-4.587 12.345-.022 1.629.4 2.73 1.223 3.178 4.699 2.573 15.686-14.125 13.83-21.017-1.063-3.946-6.05-1.328-10.466 5.494M482.727 48.523c7.09 2.241 15.593-2.016 13.382-6.706-2.372-5.022-14.499-4.05-16.634 1.342-.86 2.17.448 4.33 3.252 5.364m343.076 184.985c2.948 2.184 6.087 3.215 8.403 2.747 7.008-1.416 3.25-14.197-5.906-20.11-6.757-4.36-12.13-1.695-10.64 5.29.43 2.005 2.081 7.208 8.143 12.073M538.243 71.834c.807.295 1.812.667 3.095.895 8.357 1.518 14.72-3.798 10.984-9.181-4.754-6.841-18.856-6.168-19.856.944-.405 2.863 1.864 5.745 5.776 7.342m213.91 110.583c1.41.814 5.709 3.31 9.696 2.522 7.363-1.463 5.09-12.161-3.922-18.47-8.457-5.915-16.35-3.683-14.817 4.19.826 4.25 4.291 8.752 9.044 11.758M349.627 53.43c5.691 1.853 18.865-5.665 19.145-9.799.26-3.9-11.006-.963-17.479 4.563-1.636 1.394-4.03 3.931-1.666 5.236m587.317 377.12c8.236-.353 8.41-18.965.256-27.652-5.73-6.109-11.74-2.664-12.131 6.954-.136 3.333.332 9.91 5 16.497 1.084 1.302 3.615 4.342 6.875 4.202M783.751 906.725c-3.718 2.828-8.283 7.022-9.931 10.315-.276.645-.74 1.727-.208 2.302 3.012 3.254 23.036-11.228 23.807-17.216.44-3.418-5.945-1.268-13.668 4.6M676.914 138.993c1.444.708 5.836 2.851 10.363 1.92 8.233-1.69 6.025-10.843-1.633-16.436-8.609-6.283-19.08-4.177-17.788 3.577.664 3.995 4.303 8.392 9.058 10.939m-72.319-37.228c1.295.538 4.32 1.802 8.113 1.56 8.477-.548 10.337-7.74 3.493-13.504-7.73-6.507-19.985-4.963-19.578 2.466.193 3.54 3.397 7.347 7.972 9.478M286.108 69.097c.029-3.074-10.82 1.768-18.72 8.355-2.382 1.981-6.198 5.566-4.956 7.214 4.571 2.569 23.642-11.58 23.676-15.569m648.173 481.168c-1.025 3.802-2.2 11.328 1.509 19.006.912 1.533 2.298 3.85 4.87 4.69 9.458 3.085 16.558-17.984 10.126-30.063-4.763-8.944-13.245-5.67-16.505 6.367M863.154 806.01c-2.457 2.984-6.655 8.897-7.144 14.948-.027.96.097 2.699 1.243 3.533 5.203 3.798 23.488-13.803 22.22-24.464-.723-6.102-8.806-3.137-16.319 5.983M384.765 70.713c8.503 3.248 24.031-5.327 22.45-12.408-1.562-7.009-18.356-2.71-23.738 4.5-1.217 1.631-3.526 5.66 1.288 7.908m525.9 632.855c.393 1.133 1.048 3.031 2.774 4.035 8.118 4.733 21.338-16.203 17.903-28.356-2.421-8.575-11.72-5.504-17.452 5.763-1.535 3.02-4.926 10.875-3.225 18.558m-30.222-338.24c10.717-.791 10.54-20.329-.284-30.748-8.465-8.146-17.967-4.31-17.834 7.205.04 3.16.9 11.342 8.08 19.057 1.604 1.447 5.342 4.832 10.038 4.487M707.895 947.216c-2.81 1.75-9.704 6.259-12.969 10.392-.444.697-.866 1.357-.623 1.87 1.94 4.114 29.176-11.413 30.356-17.307.665-3.324-7.013-1.016-16.764 5.045M435.582 93.09c12.997 4.525 27.527-5.432 24.698-13.998-3.3-9.999-24.844-7.527-29.546 3.388-.898 2.085-2.224 7.293 4.848 10.61m364.83 208.18c2.066 1.483 6.897 4.955 12.696 4.34 12.478-1.319 12.633-20.037.255-31.285-11.137-10.131-24.178-6.227-23.652 7.074.285 7.172 4.484 14.97 10.701 19.87M632.924 981.373c-2.447 1.23-10.77 5.509-15.208 8.956-.63.553-1.488 1.312-1.096 1.663 2.782 2.486 34.043-12.28 34.483-16.288.2-1.827-5.98-.466-18.18 5.669M283.86 102.315c7.481 3.74 29.028-10.424 28.826-18.944-.184-7.543-17.577-1.798-26.978 8.917-2.357 2.686-5.73 7.556-1.848 10.027m601.694 377.206c-.696 3.999-1.597 14.331 5.113 23.89 1.434 1.67 3.844 4.462 7.856 5.272 14.089 2.844 20.863-22.667 10.06-37.914-7.128-10.055-20.24-7.226-23.03 8.752m-92.11 379.184c-2.728 2.805-9.204 10.047-10.347 16.721-.031 1.118-.057 2.172.814 3.025 6.273 6.143 31.798-16.148 30.686-26.799-.624-5.961-10.507-3.876-21.152 7.053m-303.966-749.69c-.67 3.071-.462 8.879 8.454 13.27 1.227.547 3.335 1.239 5.27 1.566 14.692 2.482 26.785-9.143 19.903-19.14-7.894-11.464-30.837-8.529-33.627 4.303m234.942 137.51c5.746 3.74 10.596 4.174 12.977 4.103 13.904-.422 16.644-17.21 4.73-28.975-12.925-12.758-30.579-9.457-29.987 5.605.163 4.087 1.97 12.02 12.28 19.267M224.808 115.795c-.749-5.187-15.051 2.823-25.09 14.052-3.078 3.445-7.921 9.659-5.776 12.585 7.025 4.391 31.825-19.997 30.866-26.637m344.896 41.41c1.914.852 5.114 2.273 9.503 2.59 15.448 1.115 23.729-11.931 14.53-22.891-10.831-12.901-33.721-10.121-34.992 4.245-.435 4.895 2.217 11.68 10.96 16.057m76.678 42.07c2.342 1.2 6.258 3.204 11.614 3.443 15.697.693 21.343-14.301 9.905-26.308-12.593-13.224-33.364-10.435-33.674 4.519-.143 6.867 4.627 14.066 12.155 18.346M882.176 619.11c-1.857 4.874-4.299 14.467.223 23.894 1.466 2.62 3.285 4.393 5.417 5.27 12.922 5.314 27.247-20.421 20.44-36.718-5.559-13.308-19.696-9.213-26.08 7.554m-32.683 153.969c9.888 4.9 30.903-18.53 26.528-34.242-2.846-10.217-15.69-6.08-24.538 7.905-2.791 4.409-7.214 13.077-5.463 21.593.46 1.36 1.23 3.636 3.473 4.744M323.463 124.88c13.197 5.454 37.179-10.282 34.213-22.453-2.795-11.463-27.842-5.391-36.717 8.907-2.18 3.51-4.746 9.929 2.503 13.546M822.797 415.03c-.39 7.405 1.86 17.995 9.345 25.536 2.007 1.818 6.183 5.608 12.27 5.766 17.72.453 22.651-28.34 7.64-44.65-10.662-11.584-28.21-6.447-29.255 13.348M721.208 907.096c-3.23 2.855-10.972 10.201-13.123 16.735-.174 1.112-.324 2.072.514 2.834 6.312 5.743 37.37-17.586 36.926-27.736-.255-5.778-11.525-3.145-24.317 8.167m-503.7-741.629c12.928 5.561 38.732-19.23 36.722-31.206-2.047-12.194-26.213.438-35.887 15.941-3.472 5.562-5.516 12.492-.836 15.265m162.836-13.562c20.304 7.372 42.836-11.827 36.664-25.74-6.44-14.526-36.57-8.681-43.561 8.447-1.413 3.453-3.569 12.065 6.897 17.293m467.146 435.26c18.718 5.331 33.382-26.074 21.203-45.413-9.68-15.374-28.827-9.394-34.143 10.665-1.31 4.935-3.494 17.63 4.477 28.873 1.337 1.674 4.212 4.662 8.463 5.874M749.823 349.7c-.671 10.524 4.268 21.708 12.575 28.494 2.583 1.91 6.91 5.106 13.313 5.617 20.599 1.669 28.018-26.012 11.844-44.205-14.553-16.377-36.415-10.529-37.732 10.094m-99.104 601.179c-2.72 2.06-11.851 9.227-15.294 14.994-.414.951-.77 1.774-.208 2.372 3.514 3.749 38.8-15.54 40.057-25.791.625-5.093-10.19-2.47-24.555 8.425m133.76-144.258c-2.886 3.964-9.435 14.174-8.042 23.339.423 1.887 1.33 3.284 2.684 4.16 10.723 6.92 37.253-19.72 35.487-35.632-1.414-12.688-18.308-8.128-30.13 8.133M130.953 213.964c8.482 4.184 36.419-28.49 33.587-39.286-1.964-7.491-18.351 4.257-29.233 20.945-3.195 4.9-8.102 13.737-5.069 17.835.216.153.483.389.715.506m724.77 462.124c-5.814-14.776-25.236-9.187-34.067 9.806-4.69 10.085-5.336 21.047-1.637 27.922 1.158 1.831 2.255 3.56 4.81 4.897 15.701 8.214 38.51-23.255 30.895-42.625M670.175 293.287c-.767 10.422 4.956 21.36 14.575 27.867 3.242 2.003 8.142 5.028 15.266 5.36 21.457.997 30.158-24.76 14.324-42.405-16.532-18.43-42.538-13.027-44.165 9.178M436.983 163.672c-1.286 4.86-1.597 13.99 10.813 20.538 1.391.565 3.264 1.3 4.72 1.67 21.165 5.423 42.121-13.45 32.976-29.696-10.048-17.848-43.14-12.737-48.51 7.488M585.76 987.69c-.463.296-11.385 7.275-16.746 11.996-1.052 1.031-1.193 1.22-1.245 1.693 1.292 1.383 16.46-5.273 23.659-9.254 15.037-8.323 16.434-12.29 16.562-13 .469-2.626-6.12-1.706-22.23 8.565m-76.067-787.253c-.765 5.456.014 15.783 13.789 23.671 3.322 1.708 6.934 2.798 10.732 3.245 23.413 2.746 38.413-18.046 25.478-35.323-13.841-18.483-47.021-12.905-50 8.407m79.341 42.517c-.394 4.738.283 16.791 15.065 26.295 1.897 1.106 7.01 3.74 13.438 4.29 23.124 1.98 35.007-21.567 19.866-39.375-15.816-18.59-46.552-13.007-48.369 8.79M512.893 1024c33.454-11.247 34.094-14.987 34.103-15.139-1.587-.285-6.94 2.364-17.617 7.642-7.297 3.607-11.609 5.57-16.485 7.497M260.603 191.408c20.667 7.74 48.662-19.603 42.586-35.413-5.764-15.001-36.08-5.146-46.34 15.059-4.613 9.09-3.14 17.078 3.754 20.354m511.46 296.657c-1.377 7.088-2.004 20.802 9.244 33.012 2.146 1.876 5.733 5.017 11.285 6.204 23.162 4.948 38.103-28.174 22.836-50.635-13.158-19.367-38.691-12.64-43.366 11.42m-55.369 374.372c-5.746 7.05-11.167 17.01-10.323 23.373.345 1.457.671 2.835 2.311 3.833 9.9 6.027 42.825-20.77 40.347-37.898-1.47-10.162-18.44-6.347-32.335 10.692M77.433 296.622c10.395 5.653 37.362-37.122 32.787-52-3.084-10.035-19.903 5.257-29.991 27.267-3.03 6.612-7.537 18.537-3.639 24.094.255.192.565.487.844.64m79.068-55.875c16.595 7.994 45.326-28.093 40.71-44.146-4.142-14.395-29.159-.945-40.555 21.804-3.019 6.028-7.056 16.942-.155 22.342m602.507 544.076c15.137 10.899 44.783-21.263 39.645-43.015-4.328-18.351-27.77-12.787-39.809 9.448-3.367 6.21-8.277 18.283-3.391 29.363.816 1.322 1.834 2.969 3.555 4.204m60.885-171.805c-9.929-20.25-35.376-13.71-43.923 11.29-2.36 6.898-5.005 20.299 3.762 32.53 2.145 2.663 4.686 4.596 7.546 5.737 21.159 8.44 44.015-26.296 32.615-49.557m-465.658 397.136l-.24.346c1.914 1.697 14.294 5.528 28.997 8.312 4.84.917 17.325 3.093 28.602 3.5 2.164.023 2.608.013 3.33-.177a10.635 10.635 0 01-.106-.307c-2.65-1.117-56.358-12.093-60.583-11.674m-43.212-811.439c-1.696 4.895-4.16 17.047 9.438 24.078.082.035.19.087.274.116 24.008 9.527 56.058-16.333 46.974-37.905-8.8-20.905-48.005-11.423-56.686 13.711m388.39 227.326c-1.032 7.708-.652 22.516 13.515 35.056 3.46 2.77 9.161 6.15 16.658 6.497 26.615 1.247 38.72-33.453 19.628-56.256-17.34-20.704-46.196-12.186-49.801 14.703M652.19 914.347c-2.64 2.947-11.322 13.201-12.034 21.395.103 1.35.19 2.519 1.475 3.345 7.937 5.082 43.626-21.818 42.086-36.151-.975-9.065-16.742-5.083-31.527 11.41M379.514 230.839c-1.687 6.752-2.151 19.361 13.683 28.017 2.338.974 5.249 2.192 9.106 2.788 27.64 4.292 51.85-24.395 38.096-45.147-14.398-21.708-54.225-12.324-60.885 14.342m239.76 136.94c-1.082 8.051-.412 23.468 16.256 36.313 3.083 1.926 8.239 5.143 15.478 6.037 28.775 3.55 44.81-32.056 25.239-56.029-19.02-23.29-53.094-15.102-56.972 13.68M595.31 958.844c-5.619 5.746-12.034 13.972-13.429 18.58-.22 1.05-.416 1.957.323 2.522 5.186 3.968 40.279-20.643 40.472-32.114.124-7.542-13.124-3.558-27.366 11.012M455.768 270.131c-1.292 7.47-.866 21.55 16.48 31.948 2.491 1.171 5.587 2.624 9.66 3.46 29.986 6.14 53.48-23.83 37.521-47.855-16.426-24.724-58.665-16.473-63.66 12.447m81.923 45.368c-1.037 7.887-.159 22.895 17.36 34.72 3.677 1.988 7.147 3.865 13.06 4.834 30.666 5.018 50.192-27.998 31.18-52.729-18.635-24.243-57.784-15.87-61.6 13.175M195.688 243.43c-2.675 7.078-5.479 19.998 5.756 26.998 24.676 10.178 55.451-26.942 47.256-48.145-7.884-20.37-42.56-6.536-53.012 21.147M38.562 388.091c12.394 2.9 33.28-51.505 25.11-65.413-5.232-8.894-19.908 10.536-26.616 35.244-2.168 7.975-5.111 22.348-.469 28.95.531.45 1.295 1.057 1.975 1.22m677.792 176.314c-2.014 7.97-3.536 23.342 8.98 36.748 2.725 2.344 5.303 4.559 10.017 6.057 25.845 8.22 48.891-27.882 34.73-54.405-13.202-24.726-46.341-17.57-53.727 11.6m-322.706 449.567a9.186 9.186 0 01-.085.39c2.638 1.664 15.165 4.609 31.562 6.654 8 .998 20.603 2.239 35.192 2.487 3.737.02 3.737.02 4.77-.248-.485-.133-67.204-9.998-71.439-9.283m153.377-16.899c-3.761 3.49-10.761 10.465-13.62 13.57-1.145 1.312-1.145 1.352-1.11 1.838 4.317.39 36.345-19.732 35.626-26.804-.232-2.294-5.815-2.606-20.896 11.396m189.718-196.308c-5.417-16-28.505-8.672-41.177 13.065-3.695 6.344-9.266 18.604-5.028 29.455 1.077 1.842 2.096 3.583 4.707 4.803 16.594 7.736 48.007-28.087 41.498-47.323m-212.526 215.08c-1.069-.08-3.422 1.813-11.227 8.077a2.814 2.814 0 00-.096.077c8.904-4.932 11.504-7.665 11.323-8.153M104.59 326.318c.469.318 1.147.674 1.672.88 18.361 7.164 47.293-38.873 37.297-59.356-7.441-15.25-32.156 2.67-41.316 29.957-2.09 6.237-6.057 21.5 2.347 28.52m621.575 409.578c22.712 8.234 50.034-29.441 38.979-53.749-9.633-21.187-39.055-13.286-49.189 13.212-2.329 6.093-6.75 21.697 2.51 34.95 1.981 2.157 3.85 4.19 7.7 5.587m-454.571 240.67c.335 2.39 15.41 10.48 31.018 16.651 4.305 1.7 19.273 7.412 31.006 9.407 2.761.409 2.95.202 3.367-.252-.367-.476-61.925-28.458-65.391-25.805M659.387 544.66c3.009 2.124 8.042 5.68 15.447 6.72 29.41 4.14 49.517-34.643 31.635-61.028-18.015-26.586-55.222-17.521-61.247 14.923-1.615 8.706-1.926 25.402 14.165 39.385m-642.56-58.675c12.952-.811 23.338-64.336 12.481-76.367-6.662-7.385-16.863 14.54-19.503 41.883-.873 9.044-1.528 25.349 3.86 32.95.798.723 1.792 1.62 3.162 1.534m233.68-211.772c-2.115 7.914-3.324 22.458 12.331 30.999.892.353 2.06.87 2.972 1.167 29.584 9.672 64.434-28.15 49.717-53.955-13.94-24.44-56.477-10.186-65.02 21.79m384.399 630.698c13.191 5.803 47.093-27.015 41.546-45.97-4.06-13.87-25.981-8.508-39.553 14.498-2.838 4.818-9.1 17.115-5.873 27.237.833 1.668 1.622 3.243 3.88 4.235m-193.303 113.495c2.224 1.115 15.26 3.308 33.959 4.526 15.12.985 29.572 1.036 37.332 1.066-18.624-.567-34.564-2.216-51.993-4.153-16.654-1.85-18.637-1.926-19.298-1.439M141.766 325.61c-1.737 7.094-4.326 24.548 9.035 33.34.722.326 1.663.82 2.408 1.09 25.057 9.025 56.932-38.91 42.636-64.11-12.232-21.566-46.095-2.982-54.08 29.68m-80.964 59.853c-1.624 9.094-2.96 25.579 6.328 33.774 1.026.587 2.442 1.358 3.598 1.59 20.086 4.082 41.847-53.461 27.713-73.3-10.612-14.898-32.067 6.73-37.639 37.936m259.727-77.412c-1.373 7.025-2.466 24.553 17.005 35.492a34.26 34.26 0 007.066 2.57c33.322 8.25 64.689-30.335 47.266-58.146-17.289-27.603-64.624-14.277-71.337 20.084M.5 548.681c.593 7.548 2.63 25.934 8.742 33.573.938.98 2.136 1.505 3.046 1.34 11.047-2.013 8.879-73-2.466-80.805-6.633-4.565-11.425 19.027-9.322 45.892m565.002-98.452c-.932 7.484-1.038 26.417 17.996 40.597 3.096 2.068 9.547 5.635 17.99 6.267 33.746 2.522 52.664-38.137 30.672-65.914-21.293-26.901-62.41-15.147-66.658 19.05m151.272 171.386c-15.268-23.299-49.733-12.93-57.628 17.341-1.813 6.961-4.564 24.703 9.04 39.052 2.495 2.083 6.668 5.567 13.383 6.603 28.623 4.413 51.986-37.387 35.205-62.996M58.91 772.764c-1.513 2.665 9.478 22.22 20.283 38.102 3.925 5.766 13.781 19.783 20.573 25.434 1.109.737 1.336.85 1.942.784 2.613-4.042-37.783-64.759-42.798-64.32m167.54 168.89c-23.477-14.502-27.741-15.254-28.831-14.292-.137 3.324 14.025 15.071 30.314 25.143 4.413 2.729 19.72 11.908 31.325 15.411 2.67.728 3.156.457 3.617.195.026-.118.097-.27.087-.39-.288-3.527-30.465-22.332-36.511-26.068m159.626 68.155c.06-.138.136-.32.191-.46-.561-.468-72.594-27.349-75.535-23.844.62 2.859 15.624 9.887 32.754 15.35 6.186 1.973 22.267 6.782 37.844 8.818 2.938.294 3.553.331 4.746.136m322.305-260.332c-8.559-19.925-39.33-14.353-50.787 15.335-2.395 6.198-7.007 21.998 1.795 34.823 1.9 2.092 3.693 4.069 7.471 5.328 22.804 7.595 51.912-31.298 41.52-55.486M582.227 953.765c10.542 4.81 42.983-26.815 37.853-43.27-2.988-9.587-20.904-5.71-33.27 14.985-5.521 9.243-8.44 19.515-7.095 24.976.49 1.385.916 2.582 2.512 3.309m-90.257 68.606c1.252.251 7.33 1.028 20.242 1.6l.683.029c-20.794-1.656-20.794-1.656-20.925-1.63m-9.28-625.211c-1.222 9.454-.27 27.312 19.861 40.771 4.258 2.255 8.28 4.386 15.046 5.367 34.7 5.012 57.962-35.435 37.148-64.604-21.49-30.113-67.284-18.38-72.055 18.466m-83.501-46.964c-1.301 9.28-.479 26.684 19.682 39.001 4.296 2.056 8.35 3.994 15.218 4.645 34.9 3.3 58.567-38.056 37.236-65.075-21.942-27.786-67.111-14.373-72.136 21.43M25.118 687.493c-4.416-1.08 1.448 20.669 11.621 43.093 3.709 8.167 10.87 22.79 17.199 28.976.913.792 1.851 1.208 2.335 1.036 6.115-2.177-23.291-71.184-31.155-73.105M9.144 596.799c-6.286-4.253-5.96 18.76.632 44.767 2.292 9.043 7.09 25.283 13.467 32.476.789.635 1.77 1.423 2.682 1.245 9.348-1.837-5.397-70.787-16.781-78.488m531.793 397.28c5.391 3.313 34.292-25.052 31.093-36.42-2.114-7.517-14.904-3.533-24.778 13.979-3.858 6.838-6.997 15.642-7.144 20.043.047 1.04.08 1.937.83 2.398m-27.727 29.566c3.69-3.664 7.68-7.009 11.316-10.724 3.23-3.299 5.134-5.808 6.05-7.015 3.28-4.32 5.006-8.702 4.193-10.654-1.028-2.477-6.913-1.13-13.643 12.73-2.278 4.69-4.028 9.64-6.824 14.08-.353.536-.72 1.061-1.092 1.583M45.314 517.565c1.438.809 3.226 1.813 5.524 1.736 20.956-.718 30.706-64.899 12.718-83.743-12.376-12.973-28.94 12.134-29.534 44.777-.184 10.16 1.038 28.508 11.292 37.23m173.488-118.483c33.674 7.133 64.372-42.526 43.798-70.845-18.214-25.068-60.167-5.773-66.015 30.362-1.283 7.92-2.322 27.501 15.662 38.169a26.339 26.339 0 006.555 2.314m371.02 185.491c-1.345 7.662-2.561 27.116 15.171 42.182 3.596 2.439 6.994 4.74 13 6.03 33.465 7.185 58.89-36.3 38.869-66.475-18.87-28.435-60.85-17-67.04 18.263m-454.9 279.554c-4.007 1.197 7.008 16.878 25.58 33.474 5.413 4.839 19.232 16.61 30.571 21.428 2.701 1.032 3.72.788 4.098.403 4.812-4.863-52.626-57.584-60.25-55.305m221.907 130.396c1.6 2.932 16.61 8.792 34.173 13.341 6.405 1.66 23.367 5.75 42.47 7.908 5.492.526 5.666.42 6.245.073-.622-.406-79.068-24.862-82.888-21.322m295.971-181.22c-7.916-19.21-37.617-12.564-48.275 16.752-2.159 5.941-6.323 21.052 1.63 33.054 1.258 1.648 3.168 3.248 4.867 4.078 20.214 9.88 51.448-30.408 41.778-53.883M100.425 416.159c-1.99 17.877 3.344 33.305 13.59 39.303 1.5.704 3.542 1.618 5.166 1.957 28.19 5.804 51.31-51.352 31.719-78.407-16.138-22.282-46.33-.064-50.475 37.147m504.75 297.373c-1.756 7.105-4.368 25.169 9.275 39.408 2.81 2.3 5.465 4.475 10.43 5.71 29.069 7.22 56.543-38.222 39.2-64.832-14.177-21.758-50.572-13.958-58.904 19.714M310.67 980.176c.546-5.472-65.796-41.794-73.94-40.487-5.718.923 7.844 13.25 30.082 25.085 4.983 2.651 22.448 11.59 38.11 15.344 4.583.995 5.34.386 5.748.058m-44.09-584.24c-1.118 10.345.174 29.435 21.367 40.994 3.42 1.634 8.24 3.032 11.992 3.49 37.643 4.597 65.59-44.823 42.121-74.47-23.17-29.27-71.138-10.214-75.48 29.986M43.428 528.394c-13.02-8.833-22.502 16.885-17.8 48.275 1.506 10.069 5.651 28.192 16.474 36.47 1.04.656 3.814 2.396 7.137 1.358 17.829-5.564 13.264-73.16-5.81-86.103m469.093 3.354c-1.221 10.02-.23 29.005 20.052 43.558 3.323 2.134 10.193 5.79 18.892 6.313 35.15 2.117 56.427-43.849 33.48-72.33-23.21-28.805-67.887-14.953-72.424 22.46M138.458 859.004c7.749-4.995-37.682-65.773-50.633-67.743-7.993-1.213.768 19.351 17.047 40.01 4.786 6.076 17.178 20.876 28.78 27.034 1.859.754 3.614 1.468 4.806.699m463.799 11.664c-8.339-15.083-32.307-6.901-40.494 19.004-1.316 4.176-5.105 18.649 1.528 29.62 1.355 1.686 2.634 3.278 5.286 4.125 15.95 5.087 44.64-32.933 33.68-52.75m-89.378 135.051c-1.525-.708-4.895 1.986-1.553 13.417.426 1.456 1.087 3.425 1.568 4.864 2.815-10.823 2.808-16.974-.015-18.28m-86.906-595.238c-24.202-31.867-74.896-14.957-78.61 26.224-.954 10.597.803 30.331 23.312 43.443 3.227 1.445 7.24 3.249 12.401 4.12 40.286 6.776 67.95-40.804 42.897-73.787m27.494 116.799c4.038 2.039 10.792 5.448 20.277 5.61 37.656.64 58.023-46.802 32.52-75.762-25.505-28.967-72.116-12.882-75.574 26.077-.922 10.443.805 30.052 22.777 44.075M40.454 620.298c-12.016-5.125-14.603 19.747-5.038 48.388 3.218 9.634 10.27 26.947 21.342 34.654 2.424 1.457 4.575 1.825 6.388 1.098 15.115-6.078-3.76-76.064-22.692-84.14m15.559 88.674c-11.131-4.405-7.886 19.3 6.202 45.294 3.798 7.011 13.872 24.089 25.312 31.228 1.987.924 3.864 1.795 5.597.917 11.058-5.593-20.159-70.732-37.111-77.44M458.71 1013.33c.303.326 1.32.785 2.92 1.332-19.906-4.462-41.829-9.373-43.41-9.708-7.674-1.63-9.014-1.337-9.738-1.182.003.183.003.43.003.61 3.609 2.827 18.142 7.225 35.34 10.696 19.5 3.935 38.057 5.827 44.15 6.448 4.605.466 4.9.466 6.32.466-.063-.016-2.414-.544-6.21-1.396 1.977.334 4.014.662 6.132.983 8.27 1.248 15.565 2.07 18.676 2.422-8.844-1.51-16.3-2.949-32.509-6.62-16.794-3.804-20.034-4.409-21.674-4.051m53.973 10.632c.061.011.148.026.21.039-4.87-1.054-5.31-1.122-5.819-1.203.097.076 1.944.495 5.609 1.164m17.49-37.678c.365-1.159 3.424-11.463-1.022-16.856-4.596-5.573-15.207-1.095-16.192 17.027-.326 6.05.608 13.725 2.338 19.1.379.97.901 2.294 1.737 2.442 2.092.368 9.663-10.649 13.14-21.713m29.359-63.111c-6.817-9.708-24.246-3.842-29.392 19.02-.564 2.515-3.143 15.551 1.808 25.223.845 1.256 2.122 3.152 4.478 3.462 10.471 1.381 33.888-32.35 23.106-47.705M73.97 512.164c.452 8.698 3.158 29.993 18.646 39.89 2.332 1.264 5.55 2.131 8.003 2.155 27.547.275 38.201-62.95 14.618-86.735-18.89-19.047-43.189 7.261-41.267 44.69m81.481-61.38c-.379 10.86 1.723 30.668 20.037 41.245 4.721 2.272 9.061 2.73 10.708 2.822 35.546 1.967 56.44-54.899 30.627-83.353-22.682-25-59.968-1.137-61.372 39.287m400.47 255.695c3.19 2.112 8.528 5.639 16.401 6.255 33.59 2.626 55.582-45.895 33.148-73.123-21.006-25.49-61-10.823-65.837 24.147-1.091 7.882-1.687 27.826 16.288 42.721m-71.002 306.486l3.86.922c-19.177-7.894-26.966-12.416-36.659-18.419 1.709 1.59 3.918 4.085 4.495 6.344a1125.35 1125.35 0 00-3.523-.481c16.286 6.438 27.377 10.82 35.215 13.89-1.602-.888-2.55-1.612-3.388-2.256m-30.764-49.595c.29-5.687 3.556-7.578 10.277-5.95-8.49-8.2-13.513-15.417-17.91-25.74-1.36 4.175-3.351 8.63-9.82 8.672-.307.003-.721-.02-1.031-.028 9.233 10.262 9.233 10.262 18.484 23.046M442.46 978.31c-11.106-6.874-18.597-12.876-26.715-21.402 1.156 5.067.749 7.955-4.763 7.727-.317-.011-.74-.055-1.059-.078 11.18 6.66 17.717 11.577 30.285 21.194-.26-.32-.614-.738-.867-1.066-2.172-2.838-4.657-7.437 3.119-6.375m-27.705-48.397c-9.62-8.144-15.571-15.15-21.22-24.979-1.26 4.134-3.227 8.58-10.695 9.041-.358.022-.833.028-1.19.038 9.306 7.324 15.54 13.741 23.815 24.525-.086-6.004 2.691-8.582 9.29-8.625m-22.975 27.32c-12.13-6.979-20.456-13.19-29.683-22.148 1.04 4.107 1.643 8.516-4.462 8.854-.317.018-.74.012-1.052.018 12.195 7.018 19.89 12.485 32.53 22.08-4.436-6.191-3.585-8.988 2.667-8.803m-33.86-53.744c-10.788-8.177-17.726-15.42-24.738-25.839-.948 4.977-2.826 9.695-10.124 10.503-.377.04-.877.067-1.252.097 10.382 7.632 17.398 14.251 26.807 25.298-.535-6.768 2.165-9.684 9.307-10.06m-22.974 32.499c-13.094-7.39-22.18-14.174-32.413-24.202 1.574 4.98 2.643 10.318-4.693 10.64-.36.014-.841.005-1.201.007 12.291 6.602 21.21 12.508 36.697 24.302-4.924-6.933-4.428-10.247 1.61-10.747m-38.26-57.968c-11.528-8.326-19.113-15.9-27.056-27.01-.647 5.366-2.3 10.438-9.97 11.237-.387.041-.905.066-1.295.091 11.21 7.892 19.06 15.11 30.003 27.585-1.258-7.644 1.153-11.093 8.318-11.903m-16.709 53.21c-7.87-9.537-7.982-14.059-.372-14.668-15.627-8.522-26.33-16.67-38.148-29.06 3.006 7.05 5.217 13.935-3.401 13.932-.44 0-1.029-.045-1.466-.063 14.338 7.616 25.289 15.152 43.387 29.86m-44.13-78.059c-12.9-9.187-21.365-17.926-30.195-31.174.503 7.631-.301 14.752-9.474 15.18-.47.023-1.098.007-1.566.01 12.717 8.622 21.733 16.977 34.471 31.922-3.338-10.161-1.317-14.927 6.765-15.938m-39.25-56.118c.393-10.58 4.26-15.376 13.352-16.56-12.124-10.545-19.335-20.418-25.72-35.22-1.661 8.197-4.605 15.914-14.838 16.876-.503.047-1.177.062-1.68.091 11.769 9.597 19.596 19.031 28.887 34.813m-15.722-79.232c3.253-11.546 8.784-16.714 19.102-17.845-12.913-18.19-12.913-18.19-20.177-38.671-2.339 5.636-7.205 17.366-22.208 17.511-.645.007-1.51-.04-2.155-.056 11.785 10.694 18.675 21.28 25.438 39.061m-22.612-129.238c13.241 11.457 20.008 24.466 24.123 46.39 6.79-14.212 15.286-19.643 30.298-19.368-14.596-15.08-19.817-29.564-18.62-51.655-4.044 8.534-12.46 26.291-32.901 24.941-.876-.058-2.03-.216-2.9-.308m93.663 189.17c-2.404 6.234-5.913 12.166-15.26 13.37-.461.058-1.08.105-1.544.149 10.558 9.028 17.37 17.178 25.124 30.065 2.08-7.96 6.283-11.377 14.977-12.182-10.93-9.746-17.462-18.55-23.297-31.402m-23.341-64.905c10.214 10.302 15.993 19.488 21.323 33.893 4.698-9.506 10.85-13.454 21.95-14.078-10.715-10.837-16.385-20.511-20.23-34.504-2.646 4.246-8.165 13.086-21.162 14.533-.561.064-1.316.108-1.881.156m5.558-87.079c11.795 11.229 17.666 21.83 21.658 39.113 8.23-11.043 17-15.09 31.299-14.445-12.422-13.194-17.512-25.503-18.15-43.896-6.87 9.894-15.512 19.077-32.091 19.275-.815.009-1.902-.033-2.716-.047m87.527 184.105c-2.92 5.665-6.95 11.032-16.627 11.933-.474.042-1.106.07-1.583.102 9.744 8.79 15.852 16.516 22.527 28.515 2.516-7.581 7.304-10.84 16.529-11.25-9.957-9.29-15.802-17.506-20.846-29.3m-19.049-63.111c11.024 14.506 11.024 14.506 19.084 30.916 9.342-8.19 9.342-8.19 22.968-11.616-9.714-10.213-14.835-19.61-17.676-32.436-12.333 9.774-12.333 9.774-22.88 12.7-.45.127-1.046.304-1.496.436m11.168-83.384c11.238 11.801 16.422 22.224 19.127 38.452 8.502-10.14 17.747-13.991 31.903-13.292-11.174-13.252-15.363-24.476-15.462-41.404-4.373 5.286-13.472 16.287-32.841 16.307-.818.002-1.911-.045-2.727-.063m56.058 188.977c9.083 8.794 14.453 16.452 19.817 28.248 3.488-6.926 8.534-9.579 17.421-9.156-9.317-9.715-14.198-17.67-18.005-29.36-3.407 5.14-7.895 9.94-17.603 10.258-.49.016-1.142.008-1.63.01m4.44-71.225c9.48 10.337 14.252 19.318 17.625 33.14 6.23-7.928 12.974-10.732 24.055-10.004-9.58-11.408-14.005-21.242-15.778-35.072-3.227 3.803-9.946 11.716-23.895 11.952-.602.012-1.403-.01-2.006-.016m18.388-77.447c9.757 11.578 14.062 22.262 15.353 38.1 9.662-9.958 19.413-12.936 33.658-10.28-11.114-13.51-15.102-25.598-14.217-43.112-7.106 8.26-15.921 15.849-32.148 15.428-.795-.019-1.854-.095-2.646-.136m55.744 171.241c-2.177 3.122-6.704 9.616-16.648 9.365-.423-.011-.985-.055-1.408-.078 8.708 12.833 8.708 12.833 15.218 27.78 3.407-6.84 8.758-9.152 17.347-7.495-8.025-9.516-12.093-17.806-14.51-29.572m-6.856-56.675c-.611-.022-1.422-.093-2.03-.133 8.052 10.16 11.733 18.996 13.564 32.606 7.037-8.155 14.442-10.362 25.54-7.616-8.863-11.912-12.279-22.336-12.183-37.18-5.488 6.693-12.301 12.82-24.891 12.323m21.314-74.056c9.32 18.68 9.32 18.68 12.052 40.042 11.671-10.429 15.391-11.412 33.145-8.769-10.577-14.497-13.3-27.192-9.726-45.274-4.844 5.447-14.928 16.779-32.953 14.41-.757-.1-1.76-.287-2.518-.41m-1.597 234.767c-.869 4.682-.869 4.682-.906 4.732-.383.496-.383.496-3.627 1.156-.165.035-.383.088-.548.129 5.855 3.875 5.855 3.875 27.042 20.876-.868-.844-3.16-3.085-3.999-4.967-.375-.851-1.201-3.48 4.112-1.526-11.891-8.62-17.636-14.898-22.074-20.4m51.61 45.04c-.043-.036-.098-.077-.145-.114-.4-.313-.73-.593-1.083-.884.206.169.394.347.596.515-.577-.084-3.87-1.193-21.885-11.96 1.521 1.172 3.314 3.037 4.506 4.542l-2.938-1.006c12.357 5.321 12.357 5.321 17.373 7.441 1.07.44 2.507 1.027 3.577 1.466a394.686 394.686 0 01-5.64-1.672c1.858.603 3.382 1.037 5.382 1.604.077.02.177.048.258.068-42.122-9.39-63.788-16.968-72.434-25.339l3.196-.4c-16.127-6.316-25.428-10.895-38.287-18.844 1.073 1.647 2.037 4.207 2.232 6.163l-2.752.687c.535.206 61.065 25.423 65.384 28.16-16.506-1.963-75.182-17.997-81.56-30.953 1.099-.317 2.565-.736 3.663-1.05-16.974-6.471-27.234-11.628-42.24-21.22 1.77 2.201 3.937 5.735 3.919 8.56-2.377.062-5.565-.1-7.907-.512 12.31 4.38 65.677 27.637 72.875 34.324-16.888-.63-74.13-18.47-84.57-34.74 2.198-.732 5.39-.981 7.688-.697-19.753-6.9-35.893-15.544-52.324-28.025 7.334 8.802 7.33 8.957 7.297 12.92-14.686 1.19-44.17-17.348-55.366-25.987-7.555-5.83-31.076-25.204-16.517-29.692-5.14-2.939-12.186-6.966-19.348-12.454-18.689-14.312-48.643-50.433-26.066-53.927-16.35-11.93-24.586-21.242-35.251-39.85 1.271 6.496 3.187 16.315-1.807 19.445-16.788 10.522-62.39-53.72-53.62-75.535 3.546-8.823 22.991-9.246 50.086 42.067-2.304-15.663.41-21.143 11.18-22.55-15.012-13.381-21.752-23.709-28.844-44.194-.376 7.346-1.001 19.643-9.487 21.904-22.227 5.922-53.586-55.52-41.419-81.163 7.038-14.836 31.164-10.156 47.887 41.668 5.369-16.985 5.369-16.985 19.342-23.273-1.503-1.646-3.59-3.767-5.019-5.482-21.813-26.28-26.788-83.13 15.515-80.544-28.624-24.986-23.199-66.295-7.049-82.65 8.722-8.834 52.695-24.178 56.111 50.378 2.59-4.236 6.093-9.957 9.562-13.509 17.388-17.815 64.822-14.695 68.754 46.18 13.415-16.367 24.58-20.547 45.955-17.203-7.025-6.627-23.474-22.145-19.149-48.792 6.517-40.17 54.823-53.294 79.515-21.608 17.897 22.967 16.068 81.258-43.124 78.155 14.77 21.272 14.77 21.272 20.36 47.333 12.994-12.86 23.804-15.874 42.832-11.943-7.63-11.17-19.167-28.05-17.543-45.753 3.39-36.92 54.033-55.927 79.75-20.33 17.16 23.749 12.99 81.117-46.67 74.411 15.115 15.576 19.389 27.1 18.291 49.316 1.724-1.531 3.923-3.691 5.744-5.108 24.806-19.335 73.395-3.763 64.433 51.96 28.015-22.656 45.53-10.764 55.292 3.199 12.632 18.075 9.422 74.406-40.6 67.694 10.723 16.74 11.941 28.207 5.215 49.071 3.546-4.895 11.85-16.36 26.3-15.104 29.29 2.548 27.132 48.878 3.454 66.645-.394.296-39.05 21.881-33.568-44.788-11.767 14.706-19.192 13.83-29.472 12.617 8.416 14.636 9.633 20.333 8.146 38.105 3.367-4.445 8.454-11.162 18.835-10.385 21.23 1.59 25.05 41.213 5.677 58.88-12.341 11.257-29.03-4.525-28.553-35.482-9.241 8.737-9.241 8.737-19.596 10.137 4.414 6.325 4.414 6.325 11.5 28.928 1.94-2.828 4.594-6.698 9.27-7.013 20.92-1.419 21.563 40.913 10.542 50.205-5.275 4.447-17.571-8.401-21.646-31.427-3.398 8.788-4.146 9.868-12.305 8.7 7.547 8.74 10.687 14.126 15.994 27.443-.733-5.549-.733-5.549 1.584-8.927 16.778-1.943 17.53 36.098 17.49 36.487-9.443-10.272-10.662-12.11-17.416-22.322.41 1.724.677 4.091.724 5.864l-2.438 1.266c6.577 5.45 12.58 11.54 19.043 17.116-2.643-2.435-3.27-3.718-3.137-4.129.438-.089 1.941.41 6.447 6.916M198.647 913.946c6.187 4.902 22.266 16.885 38.044 22.28 2.101.557 5.626 1.49 6.75.205 5.665-6.487-56.564-57.19-68.647-55.93-7.292.76 2.285 16.343 23.853 33.445m368.65-91.537c2.6 2.114 5.05 4.112 9.547 5.164 26.67 6.255 52.524-39.48 36.403-64.387-13.897-21.464-48.966-12.623-55.716 21.123-1.39 6.965-3.227 24.622 9.766 38.1M282.854 952.876c-4.863 1.43 5.763 11.927 30.41 23.507 5.34 2.505 24.248 11.007 43.384 15.124 6.584 1.286 7.034.53 7.329.028-1.978-6.427-74.008-40.749-81.123-38.659M247.37 530.7c4.702 1.892 9.142 3.68 16.426 3.641 39.287-.207 59.402-56.25 30.312-84.46-27.763-26.92-71.107-4.099-71.352 37.573-.053 8.977 2.239 31.165 24.614 43.246M65.66 606.19c2.245 10.557 8.314 29.639 23.733 38.81 3.047 1.31 5.928 2.547 10.047 1.78 24.57-4.564 20.71-70.088-5.227-88.747-20.112-14.468-36.12 12.536-28.553 48.156m62.943 203.687c-12.387-1.776-5.264 19.265 13.86 40.934 5.435 6.163 19.79 21.216 35.574 27.945 2.27.739 6.072 1.979 8.109.432 10.119-7.679-38.82-66.625-57.543-69.31m336.708-195.111c2.704-39.887 48.7-55.825 73.46-25.454 25.138 30.834.986 81.087-36.4 75.731-3.717-.533-9.409-1.954-15.418-5.699-21.257-14.78-22.218-36.099-21.642-44.578" fill="#25D8B5" mask="url(#b)"/></g></g><path d="M684 49.044c0 3.711 5.584 12.76 7.422 15.637a.683.683 0 001.156 0C694.416 61.805 700 52.755 700 49.044 700 44.6 696.42 41 692 41s-8 3.6-8 8.044M348 200.044c0 3.711 5.584 12.76 7.422 15.637a.683.683 0 001.156 0c1.838-2.876 7.422-11.926 7.422-15.637 0-4.444-3.58-8.044-8-8.044s-8 3.6-8 8.044M627 176.044c0 3.711 5.584 12.76 7.422 15.637a.683.683 0 001.156 0c1.838-2.876 7.422-11.926 7.422-15.637 0-4.444-3.58-8.044-8-8.044s-8 3.6-8 8.044" fill="#5DE8CE"/></g></svg>