<svg class="h-map-rotate" width="1025" height="986" xmlns="http://www.w3.org/2000/svg"><path d="M.53 478.826c-.009-.519-.015-1.04-.03-1.56l.021 1.573v-.01l.01-.003m128.447-256.475c1.808-3.06 1.519-4.6 1.308-5.12-1.187-2.932-7.482.838-9.867 6.913-1.445 3.679.397 4.88 3.019 3.695 1.36-.609 3.425-2.062 5.54-5.488m-69.24 137.134c.804-1.924 1.049-4.07.627-5.464-.997-3.27-4.748-1.02-6.637 3.033-1.87 4.006-1.246 8.444 1.813 7.273.734-.279 2.612-1.31 4.196-4.842m31.483-67.182c1.751-3.8 1.084-5.59.713-6.186-1.676-2.692-7.204 1.77-8.826 7.13-1.043 3.438-.018 6.162 3.115 4.572 1.386-.701 3.532-2.571 4.998-5.516M353.168 33.226c.698-.593 2.819-2.396 2.509-4.143-.69-3.807-12.414-1.186-16.296 3.64-2.077 2.59-.86 5.038 4.208 4.417 1.54-.193 5.56-.958 9.579-3.914m595.569 194.9c1.045 1.83 3.109 5.218 5.193 7.352.338.33.948.857 1.248.73 1.744-.745-6.58-15.49-9.185-16.264-1.431-.422.31 3.92 2.744 8.181M290.417 91.332c.785-.895 3.18-3.604 2.743-6.168-.947-5.569-13.713-2.026-18.703 5.186-2.972 4.28-1.5 8.205 4.91 7.043 2.92-.528 7.563-2.434 11.05-6.061M499.264 5.754c1.004-5.285-14.933-7.71-22.612-1.851-4.662 3.56-.653 6.91 5.865 7.695 3.144.38 7.979.311 13.12-2.154 1.065-.609 3.28-1.87 3.627-3.69m362.81 124.79c1.814 1.942 5.42 5.438 9.204 7.06 1.231.468 2.026.452 2.364-.05 2.08-3.094-11.1-16.845-15.846-16.535-2.404.16-.485 4.43 4.278 9.526M639.039 17.543c1.612-5.574-15.504-11.54-22.893-7.978-4.684 2.257-1.571 7.1 6.283 9.772 4.453 1.517 9.387 1.874 12.878.932 1.053-.334 3.242-1.03 3.732-2.726m111.825 42.533c2.466 1.594 7.347 4.311 12.345 4.587 1.629.022 2.73-.4 3.178-1.223 2.573-4.699-14.125-15.686-21.017-13.83-3.946 1.063-1.328 6.05 5.494 10.466M49.023 502.773c2.241-7.09-2.016-15.593-6.706-13.382-5.022 2.372-4.05 14.499 1.342 16.634 2.17.86 4.33-.448 5.364-3.252m184.985-343.076c2.184-2.948 3.215-6.087 2.747-8.403-1.416-7.008-14.197-3.25-20.11 5.906-4.36 6.757-1.695 12.13 5.29 10.64 2.005-.43 7.208-2.081 12.073-8.143M72.334 447.257c.295-.807.667-1.812.895-3.095 1.518-8.357-3.798-14.72-9.181-10.984-6.841 4.754-6.168 18.856.944 19.856 2.863.405 5.745-1.864 7.342-5.776m110.583-213.91c.814-1.41 3.31-5.709 2.522-9.696-1.463-7.363-12.161-5.09-18.47 3.922-5.915 8.457-3.683 16.35 4.19 14.817 4.25-.826 8.752-4.291 11.758-9.044M53.93 635.873c1.853-5.691-5.665-18.865-9.799-19.145-3.9-.26-.963 11.006 4.563 17.479 1.394 1.636 3.931 4.03 5.236 1.666M431.05 48.556c-.353-8.236-18.965-8.41-27.652-.256-6.109 5.73-2.664 11.74 6.954 12.131 3.333.136 9.91-.332 16.497-5 1.302-1.084 4.342-3.615 4.202-6.875m476.174 153.193c2.828 3.718 7.022 8.283 10.315 9.931.645.276 1.727.74 2.302.208 3.254-3.012-11.228-23.036-17.216-23.807-3.418-.44-1.268 5.945 4.6 13.668M139.493 308.586c.708-1.444 2.851-5.836 1.92-10.363-1.69-8.233-10.843-6.025-16.436 1.633-6.283 8.609-4.177 19.08 3.577 17.788 3.995-.664 8.392-4.303 10.939-9.058m-37.228 72.319c.538-1.295 1.802-4.32 1.56-8.113-.548-8.477-7.74-10.337-13.504-3.493-6.507 7.73-4.963 19.985 2.466 19.578 3.54-.193 7.347-3.397 9.478-7.972M69.597 699.392c-3.074-.029 1.768 10.82 8.355 18.72 1.981 2.382 5.566 6.198 7.214 4.956 2.569-4.571-11.58-23.642-15.569-23.676M550.765 51.219c3.802 1.025 11.328 2.2 19.006-1.509 1.533-.912 3.85-2.298 4.69-4.87 3.085-9.458-17.984-16.558-30.063-10.126-8.944 4.763-5.67 13.245 6.367 16.505m255.746 71.127c2.984 2.457 8.897 6.655 14.948 7.144.96.027 2.699-.097 3.533-1.243 3.798-5.203-13.803-23.488-24.464-22.22-6.102.723-3.137 8.806 5.983 16.319M71.213 600.735c3.248-8.503-5.327-24.031-12.408-22.45-7.009 1.562-2.71 18.356 4.5 23.738 1.631 1.217 5.66 3.526 7.908-1.288m632.855-525.9c1.133-.393 3.031-1.048 4.035-2.774 4.733-8.118-16.203-21.338-28.356-17.903-8.575 2.421-5.504 11.72 5.763 17.452 3.02 1.535 10.875 4.926 18.558 3.225m-338.24 30.222c-.791-10.717-20.329-10.54-30.748.284-8.146 8.465-4.31 17.967 7.205 17.834 3.16-.04 11.342-.9 19.057-8.08 1.447-1.604 4.832-5.342 4.487-10.038m581.887 172.548c1.75 2.81 6.259 9.704 10.392 12.969.697.444 1.357.866 1.87.623 4.114-1.94-11.413-29.176-17.307-30.356-3.324-.665-1.016 7.013 5.045 16.764M93.59 549.918c4.525-12.997-5.432-27.527-13.998-24.698-9.999 3.3-7.527 24.844 3.388 29.546 2.085.898 7.293 2.224 10.61-4.848m208.18-364.83c1.483-2.066 4.955-6.897 4.34-12.696-1.319-12.478-20.037-12.633-31.285-.255-10.131 11.137-6.227 24.178 7.074 23.652 7.172-.285 14.97-4.484 19.87-10.701m680.105 167.488c1.23 2.447 5.509 10.77 8.956 15.208.553.63 1.312 1.488 1.663 1.096 2.486-2.782-12.28-34.043-16.288-34.483-1.827-.2-.466 5.98 5.669 18.18M102.815 701.64c3.74-7.481-10.424-29.028-18.944-28.826-7.543.184-1.798 17.577 8.917 26.978 2.686 2.357 7.556 5.73 10.027 1.848M480.021 99.946c3.999.696 14.331 1.597 23.89-5.113 1.67-1.434 4.462-3.844 5.272-7.856 2.844-14.089-22.667-20.863-37.914-10.06-10.055 7.128-7.226 20.24 8.752 23.03m379.184 92.11c2.805 2.728 10.047 9.204 16.721 10.347 1.118.031 2.172.057 3.025-.814 6.143-6.273-16.148-31.798-26.799-30.686-5.961.624-3.876 10.507 7.053 21.152m-749.69 303.966c3.071.67 8.879.462 13.27-8.454.547-1.227 1.239-3.335 1.566-5.27 2.482-14.692-9.143-26.785-19.14-19.903-11.464 7.894-8.529 30.837 4.303 33.627m137.51-234.942c3.74-5.746 4.174-10.596 4.103-12.977-.422-13.904-17.21-16.644-28.975-4.73-12.758 12.925-9.457 30.579 5.605 29.987 4.087-.163 12.02-1.97 19.267-12.28M116.295 760.692c-5.187.749 2.823 15.051 14.052 25.09 3.445 3.078 9.659 7.921 12.585 5.776 4.391-7.025-19.997-31.825-26.637-30.866m41.41-344.896c.852-1.914 2.273-5.114 2.59-9.503 1.115-15.448-11.931-23.729-22.891-14.53-12.901 10.831-10.121 33.721 4.245 34.992 4.895.435 11.68-2.217 16.057-10.96m42.07-76.678c1.2-2.342 3.204-6.258 3.443-11.614.693-15.697-14.301-21.343-26.308-9.905-13.224 12.593-10.435 33.364 4.519 33.674 6.867.143 14.066-4.627 18.346-12.155M619.61 103.324c4.874 1.857 14.467 4.299 23.894-.223 2.62-1.466 4.393-3.285 5.27-5.417 5.314-12.922-20.421-27.247-36.718-20.44-13.308 5.559-9.213 19.696 7.554 26.08m153.969 32.683c4.9-9.888-18.53-30.903-34.242-26.528-10.217 2.846-6.08 15.69 7.905 24.538 4.409 2.791 13.077 7.214 21.593 5.463 1.36-.46 3.636-1.23 4.744-3.473M125.38 662.037c5.454-13.197-10.282-37.179-22.453-34.213-11.463 2.795-5.391 27.842 8.907 36.717 3.51 2.18 9.929 4.746 13.546-2.503M415.53 162.703c7.405.39 17.995-1.86 25.536-9.345 1.818-2.007 5.608-6.183 5.766-12.27.453-17.72-28.34-22.651-44.65-7.64-11.584 10.662-6.447 28.21 13.348 29.255m492.067 101.589c2.855 3.23 10.201 10.972 16.735 13.123 1.112.174 2.072.324 2.834-.514 5.743-6.312-17.586-37.37-27.736-36.926-5.778.255-3.145 11.525 8.167 24.317m-741.629 503.7c5.561-12.928-19.23-38.732-31.206-36.722-12.194 2.047.438 26.213 15.941 35.887 5.562 3.472 12.492 5.516 15.265.836m-13.562-162.836c7.372-20.304-11.827-42.836-25.74-36.664-14.526 6.44-8.681 36.57 8.447 43.561 3.453 1.413 12.065 3.569 17.293-6.897m435.26-467.146c5.331-18.718-26.074-33.382-45.413-21.203-15.374 9.68-9.394 28.827 10.665 34.143 4.935 1.31 17.63 3.494 28.873-4.477 1.674-1.337 4.662-4.212 5.874-8.463M350.2 235.677c10.524.671 21.708-4.268 28.494-12.575 1.91-2.583 5.106-6.91 5.617-13.313 1.669-20.599-26.012-28.018-44.205-11.844-16.377 14.553-10.529 36.415 10.094 37.732m601.179 99.104c2.06 2.72 9.227 11.851 14.994 15.294.951.414 1.774.77 2.372.208 3.749-3.514-15.54-38.8-25.791-40.057-5.093-.625-2.47 10.19 8.425 24.555M807.12 201.021c3.964 2.886 14.174 9.435 23.339 8.042 1.887-.423 3.284-1.33 4.16-2.684 6.92-10.723-19.72-37.253-35.632-35.487-12.688 1.414-8.128 18.308 8.133 30.13M214.464 854.547c4.184-8.482-28.49-36.419-39.286-33.587-7.491 1.964 4.257 18.351 20.945 29.233 4.9 3.195 13.737 8.102 17.835 5.069.153-.216.389-.483.506-.715m462.124-724.77c-14.776 5.814-9.187 25.236 9.806 34.067 10.085 4.69 21.047 5.336 27.922 1.637 1.831-1.158 3.56-2.255 4.897-4.81 8.214-15.701-23.255-38.51-42.625-30.895M293.787 315.325c10.422.767 21.36-4.956 27.867-14.575 2.003-3.242 5.028-8.142 5.36-15.266.997-21.457-24.76-30.158-42.405-14.324-18.43 16.532-13.027 42.538 9.178 44.165M164.172 548.517c4.86 1.286 13.99 1.597 20.538-10.813.565-1.391 1.3-3.264 1.67-4.72 5.423-21.165-13.45-42.121-29.696-32.976-17.848 10.048-12.737 43.14 7.488 48.51M988.19 399.74c.296.463 7.275 11.385 11.996 16.746 1.031 1.052 1.22 1.193 1.693 1.245 1.383-1.292-5.273-16.46-9.254-23.659-8.323-15.037-12.29-16.434-13-16.562-2.626-.469-1.706 6.12 8.565 22.23m-787.253 76.067c5.456.765 15.783-.014 23.671-13.789 1.708-3.322 2.798-6.934 3.245-10.732 2.746-23.413-18.046-38.413-35.323-25.478-18.483 13.841-12.905 47.021 8.407 50m42.517-79.341c4.738.394 16.791-.283 26.295-15.065 1.106-1.897 3.74-7.01 4.29-13.438 1.98-23.124-21.567-35.007-39.375-19.866-18.59 15.816-13.007 46.552 8.79 48.369m781.046 76.14c-11.247-33.454-14.987-34.094-15.139-34.103-.285 1.587 2.364 6.94 7.642 17.617 3.607 7.297 5.57 11.609 7.497 16.485M191.908 724.897c7.74-20.667-19.603-48.662-35.413-42.586-15.001 5.764-5.146 36.08 15.059 46.34 9.09 4.613 17.078 3.14 20.354-3.754m296.657-511.46c7.088 1.377 20.802 2.004 33.012-9.244 1.876-2.146 5.017-5.733 6.204-11.285 4.948-23.162-28.174-38.103-50.635-22.836-19.367 13.158-12.64 38.691 11.42 43.366m374.372 55.369c7.05 5.746 17.01 11.167 23.373 10.323 1.457-.345 2.835-.671 3.833-2.311 6.027-9.9-20.77-42.825-37.898-40.347-10.162 1.47-6.347 18.44 10.692 32.335m-565.816 639.26c5.653-10.395-37.122-37.362-52-32.787-10.035 3.084 5.257 19.903 27.267 29.991 6.612 3.03 18.537 7.537 24.094 3.639.192-.255.487-.565.64-.844m-55.875-79.068c7.994-16.595-28.093-45.326-44.146-40.71-14.395 4.142-.945 29.159 21.804 40.555 6.028 3.019 16.942 7.056 22.342.155m544.076-602.507c10.899-15.137-21.263-44.783-43.015-39.645-18.351 4.328-12.787 27.77 9.448 39.809 6.21 3.367 18.283 8.277 29.363 3.391 1.322-.816 2.969-1.834 4.204-3.555M613.52 165.606c-20.25 9.929-13.71 35.376 11.29 43.923 6.898 2.36 20.299 5.005 32.53-3.762 2.663-2.145 4.596-4.686 5.737-7.546 8.44-21.159-26.296-44.015-49.557-32.615m397.136 465.658l.346.24c1.697-1.914 5.528-14.294 8.312-28.997.917-4.84 3.093-17.325 3.5-28.602.023-2.164.013-2.608-.177-3.33-.093.033-.215.077-.307.106-1.117 2.65-12.093 56.358-11.674 60.583m-811.439 43.212c4.895 1.696 17.047 4.16 24.078-9.438.035-.082.087-.19.116-.274 9.527-24.008-16.333-56.058-37.905-46.974-20.905 8.8-11.423 48.005 13.711 56.686m227.326-388.39c7.708 1.032 22.516.652 35.056-13.515 2.77-3.46 6.15-9.161 6.497-16.658 1.247-26.615-33.453-38.72-56.256-19.627-20.704 17.338-12.186 46.195 14.703 49.8m488.305 47.223c2.947 2.64 13.201 11.322 21.395 12.034 1.35-.103 2.519-.19 3.345-1.475 5.082-7.937-21.818-43.626-36.151-42.086-9.065.975-5.083 16.742 11.41 31.527M231.339 605.986c6.752 1.687 19.361 2.151 28.017-13.683.974-2.338 2.192-5.249 2.788-9.106 4.292-27.64-24.395-51.85-45.147-38.096-21.708 14.398-12.324 54.225 14.342 60.885m136.94-239.76c8.051 1.082 23.468.412 36.313-16.256 1.926-3.083 5.143-8.239 6.037-15.478 3.55-28.775-32.056-44.81-56.029-25.239-23.29 19.02-15.102 53.094 13.68 56.972m591.065 23.965c5.746 5.619 13.972 12.034 18.58 13.429 1.05.22 1.957.416 2.522-.323 3.968-5.186-20.643-40.279-32.114-40.472-7.542-.124-3.558 13.124 11.012 27.366M270.631 529.732c7.47 1.292 21.55.866 31.948-16.48 1.171-2.491 2.624-5.587 3.46-9.66 6.14-29.986-23.83-53.48-47.855-37.521-24.724 16.426-16.473 58.665 12.447 63.66m45.368-81.923c7.887 1.037 22.895.159 34.72-17.36 1.988-3.677 3.865-7.147 4.834-13.06 5.018-30.666-27.998-50.192-52.729-31.18-24.243 18.635-15.87 57.784 13.175 61.6M243.93 789.812c7.078 2.675 19.998 5.479 26.998-5.756 10.178-24.676-26.942-55.451-48.145-47.256-20.37 7.884-6.536 42.56 21.147 53.012m144.66 157.126c2.9-12.394-51.505-33.28-65.413-25.11-8.894 5.232 10.536 19.908 35.244 26.616 7.975 2.168 22.348 5.111 28.95.469.45-.531 1.057-1.295 1.22-1.975m176.314-677.792c7.97 2.014 23.342 3.536 36.748-8.98 2.344-2.725 4.559-5.303 6.057-10.017 8.22-25.845-27.882-48.891-54.405-34.73-24.726 13.202-17.57 46.341 11.6 53.727m449.567 322.706c.116.022.272.056.39.085 1.664-2.638 4.609-15.165 6.654-31.562.998-8 2.239-20.603 2.487-35.192.02-3.737.02-3.737-.248-4.77-.133.485-9.998 67.204-9.283 71.439m-16.899-153.377c3.49 3.761 10.465 10.761 13.57 13.62 1.312 1.145 1.352 1.145 1.838 1.11.39-4.317-19.732-36.345-26.804-35.626-2.294.232-2.606 5.815 11.396 20.896M801.266 248.757c-16 5.417-8.672 28.505 13.065 41.177 6.344 3.695 18.604 9.266 29.455 5.028 1.842-1.077 3.583-2.096 4.803-4.707 7.736-16.594-28.087-48.007-47.323-41.498m215.08 212.526c-.08 1.069 1.813 3.422 8.077 11.227.02.027.053.067.077.096-4.932-8.904-7.665-11.504-8.153-11.323M326.818 880.91c.318-.469.674-1.147.88-1.672 7.164-18.361-38.873-47.293-59.356-37.297-15.25 7.441 2.67 32.156 29.957 41.316 6.237 2.09 21.5 6.057 28.52-2.347m409.578-621.575c8.234-22.712-29.441-50.034-53.749-38.979-21.187 9.633-13.286 39.055 13.212 49.189 6.093 2.329 21.697 6.75 34.95-2.51 2.157-1.981 4.19-3.85 5.587-7.7m240.67 454.571c2.39-.335 10.48-15.41 16.651-31.018 1.7-4.305 7.412-19.273 9.407-31.006.409-2.761.202-2.95-.252-3.367-.476.367-28.458 61.925-25.805 65.391M545.16 326.113c2.124-3.009 5.68-8.042 6.72-15.447 4.14-29.41-34.643-49.517-61.028-31.635-26.586 18.015-17.521 55.222 14.923 61.247 8.706 1.615 25.402 1.926 39.385-14.165m-58.675 642.56c-.811-12.952-64.336-23.338-76.367-12.481-7.385 6.662 14.54 16.863 41.883 19.503 9.044.873 25.349 1.528 32.95-3.86.723-.798 1.62-1.792 1.534-3.162m-211.772-233.68c7.914 2.115 22.458 3.324 30.999-12.331.353-.892.87-2.06 1.167-2.972 9.672-29.584-28.15-64.434-53.955-49.717-24.44 13.94-10.186 56.477 21.79 65.02m630.698-384.399c5.803-13.191-27.015-47.093-45.97-41.546-13.87 4.06-8.508 25.981 14.498 39.553 4.818 2.838 17.115 9.1 27.237 5.873 1.668-.833 3.243-1.622 4.235-3.88m113.495 193.303c1.115-2.224 3.308-15.26 4.526-33.959.985-15.12 1.036-29.572 1.066-37.332-.567 18.624-2.216 34.564-4.153 51.993-1.85 16.654-1.926 18.637-1.439 19.298M326.11 843.734c7.094 1.737 24.548 4.326 33.34-9.035.326-.722.82-1.663 1.09-2.408 9.025-25.057-38.91-56.932-64.11-42.636-21.566 12.232-2.982 46.095 29.68 54.08m59.853 80.964c9.094 1.624 25.579 2.96 33.774-6.328.587-1.026 1.358-2.442 1.59-3.598 4.082-20.086-53.461-41.847-73.3-27.713-14.898 10.612 6.73 32.067 37.936 37.639m-77.412-259.727c7.025 1.373 24.553 2.466 35.492-17.005a34.26 34.26 0 002.57-7.066c8.25-33.322-30.335-64.689-58.146-47.266-27.603 17.289-14.277 64.624 20.084 71.337M549.181 985c7.548-.593 25.934-2.63 33.573-8.742.98-.938 1.505-2.136 1.34-3.046-2.013-11.047-73-8.879-80.805 2.466-4.565 6.633 19.027 11.425 45.892 9.322M450.73 419.997c7.484.932 26.417 1.038 40.597-17.996 2.068-3.096 5.635-9.547 6.267-17.99 2.522-33.746-38.137-52.664-65.914-30.672-26.901 21.293-15.147 62.41 19.05 66.658m171.386-151.272c-23.299 15.268-12.93 49.733 17.341 57.628 6.961 1.813 24.703 4.564 39.052-9.04 2.083-2.495 5.567-6.668 6.603-13.383 4.413-28.623-37.387-51.986-62.996-35.205M773.264 926.59c2.665 1.513 22.22-9.478 38.102-20.283 5.766-3.925 19.783-13.781 25.434-20.573.737-1.109.85-1.336.784-1.942-4.042-2.613-64.759 37.783-64.32 42.798m168.89-167.54c-14.502 23.477-15.254 27.741-14.292 28.831 3.324.137 15.071-14.025 25.143-30.314 2.729-4.413 11.908-19.72 15.411-31.325.728-2.67.457-3.156.195-3.617-.118-.026-.27-.097-.39-.087-3.527.288-22.332 30.465-26.068 36.511m68.155-159.626c-.138-.06-.32-.136-.46-.191-.468.561-27.349 72.594-23.844 75.535 2.859-.62 9.887-15.624 15.35-32.754 1.973-6.186 6.782-22.267 8.818-37.844.294-2.938.331-3.553.136-4.746M749.976 277.118c-19.925 8.559-14.353 39.33 15.335 50.787 6.198 2.395 21.998 7.007 34.823-1.795 2.092-1.9 4.069-3.693 5.328-7.471 7.595-22.804-31.298-51.912-55.486-41.52m204.289 126.155c4.81-10.542-26.815-42.983-43.27-37.853-9.587 2.988-5.71 20.904 14.985 33.27 9.243 5.521 19.515 8.44 24.976 7.095 1.385-.49 2.582-.916 3.309-2.512m68.606 90.257c.251-1.252 1.028-7.33 1.6-20.242l.029-.683c-1.656 20.794-1.656 20.794-1.63 20.925m-625.211 9.28c9.454 1.222 27.312.27 40.771-19.861 2.255-4.258 4.386-8.28 5.367-15.046 5.012-34.7-35.435-57.962-64.604-37.148-30.113 21.49-18.38 67.284 18.466 72.055m-46.964 83.501c9.28 1.301 26.684.479 39.001-19.682 2.056-4.296 3.994-8.35 4.645-15.218 3.3-34.9-38.056-58.567-65.075-37.236-27.786 21.942-14.373 67.111 21.43 72.136m337.298 374.07c-1.08 4.416 20.669-1.448 43.093-11.621 8.167-3.709 22.79-10.87 28.976-17.199.792-.913 1.208-1.851 1.036-2.335-2.177-6.115-71.184 23.291-73.105 31.155m-90.695 15.974c-4.253 6.286 18.76 5.96 44.767-.632 9.043-2.292 25.283-7.09 32.476-13.467.635-.789 1.423-1.77 1.245-2.682-1.837-9.348-70.787 5.397-78.488 16.781m397.28-531.793c3.313-5.391-25.052-34.292-36.42-31.093-7.517 2.114-3.533 14.904 13.979 24.778 6.838 3.858 15.642 6.997 20.043 7.144 1.04-.047 1.937-.08 2.398-.83m29.566 27.727c-3.664-3.69-7.009-7.68-10.724-11.316-3.299-3.23-5.808-5.134-7.015-6.05-4.32-3.28-8.702-5.006-10.654-4.193-2.477 1.028-1.13 6.913 12.73 13.643 4.69 2.278 9.64 4.028 14.08 6.824.536.353 1.061.72 1.583 1.092m-506.08 467.897c.809-1.438 1.813-3.226 1.736-5.524-.718-20.956-64.899-30.706-83.743-12.718-12.973 12.376 12.134 28.94 44.777 29.534 10.16.184 28.508-1.038 37.23-11.292M399.582 766.698c7.133-33.674-42.526-64.372-70.845-43.798-25.068 18.214-5.773 60.167 30.362 66.015 7.92 1.283 27.501 2.322 38.169-15.662a26.339 26.339 0 002.314-6.555m185.491-371.02c7.662 1.345 27.116 2.561 42.182-15.171 2.439-3.596 4.74-6.994 6.03-13 7.185-33.465-36.3-58.89-66.475-38.869-28.435 18.87-17 60.85 18.263 67.04m279.554 454.9c1.197 4.007 16.878-7.008 33.474-25.58 4.839-5.413 16.61-19.232 21.428-30.571 1.032-2.701.788-3.72.403-4.098-4.863-4.812-57.584 52.626-55.305 60.25m130.396-221.907c2.932-1.6 8.792-16.61 13.341-34.173 1.66-6.405 5.75-23.367 7.908-42.47.526-5.492.42-5.666.073-6.245-.406.622-24.862 79.068-21.322 82.888m-181.22-295.971c-19.21 7.916-12.564 37.617 16.752 48.275 5.941 2.159 21.052 6.323 33.054-1.63 1.648-1.258 3.248-3.168 4.078-4.867 9.88-20.214-30.408-51.448-53.883-41.778M416.659 885.075c17.877 1.99 33.305-3.344 39.303-13.59.704-1.5 1.618-3.542 1.957-5.166 5.804-28.19-51.352-51.31-78.407-31.719-22.282 16.138-.064 46.33 37.147 50.475m297.373-504.75c7.105 1.756 25.169 4.368 39.408-9.275 2.3-2.81 4.475-5.465 5.71-10.43 7.22-29.069-38.222-56.543-64.832-39.2-21.758 14.177-13.958 50.572 19.714 58.904M980.676 674.83c-5.472-.546-41.794 65.796-40.487 73.94.923 5.718 13.25-7.844 25.085-30.082 2.651-4.983 11.59-22.448 15.344-38.11.995-4.583.386-5.34.058-5.748m-584.24 44.09c10.345 1.118 29.435-.174 40.994-21.367 1.634-3.42 3.032-8.24 3.49-11.992 4.597-37.643-44.823-65.59-74.47-42.121-29.27 23.17-10.214 71.138 29.986 75.48m132.458 223.153c-8.833 13.02 16.885 22.502 48.275 17.8 10.069-1.506 28.192-5.651 36.47-16.474.656-1.04 2.396-3.814 1.358-7.137-5.564-17.829-73.16-13.264-86.103 5.81m3.354-469.093c10.02 1.221 29.005.23 43.558-20.052 2.134-3.323 5.79-10.193 6.313-18.892 2.117-35.15-43.849-56.427-72.33-33.48-28.805 23.21-14.953 67.887 22.46 72.424m327.256 374.064c-4.995-7.749-65.773 37.682-67.743 50.633-1.213 7.993 19.351-.768 40.01-17.047 6.076-4.786 20.876-17.178 27.034-28.78.754-1.859 1.468-3.614.699-4.806m11.664-463.799c-15.083 8.339-6.901 32.307 19.004 40.494 4.176 1.316 18.649 5.105 29.62-1.528 1.686-1.355 3.278-2.634 4.125-5.286 5.087-15.95-32.933-44.64-52.75-33.68m135.051 89.378c-.708 1.525 1.986 4.895 13.417 1.553 1.456-.426 3.425-1.087 4.864-1.568-10.823-2.815-16.974-2.808-18.28.015m-595.238 86.906c-31.867 24.202-14.957 74.896 26.224 78.61 10.597.954 30.331-.803 43.443-23.312 1.445-3.227 3.249-7.24 4.12-12.401 6.776-40.286-40.804-67.95-73.787-42.897m116.799-27.494c2.039-4.038 5.448-10.792 5.61-20.277.64-37.656-46.802-58.023-75.762-32.52-28.967 25.505-12.882 72.116 26.077 75.574 10.443.922 30.052-.805 44.075-22.777m93.017 413.013c-5.125 12.016 19.747 14.603 48.388 5.038 9.634-3.218 26.947-10.27 34.654-21.342 1.457-2.424 1.825-4.575 1.098-6.388-6.078-15.115-76.064 3.76-84.14 22.692m88.674-15.559c-4.405 11.131 19.3 7.886 45.294-6.202 7.011-3.798 24.089-13.872 31.228-25.312.924-1.987 1.795-3.864.917-5.597-5.593-11.058-70.732 20.159-77.44 37.111M1013.83 526.79c.326-.303.785-1.32 1.332-2.92-4.462 19.906-9.373 41.829-9.708 43.41-1.63 7.674-1.337 9.014-1.182 9.738.183-.003.43-.003.61-.003 2.827-3.609 7.225-18.142 10.696-35.34 3.935-19.5 5.827-38.057 6.448-44.15.466-4.605.466-4.9.466-6.32-.016.063-.544 2.414-1.396 6.21.334-1.977.662-4.014.983-6.132 1.248-8.27 2.07-15.565 2.422-18.676-1.51 8.844-2.949 16.3-6.62 32.509-3.804 16.794-4.409 20.034-4.051 21.674m10.632-53.973c.011-.061.026-.148.039-.21-1.054 4.87-1.122 5.31-1.203 5.819.076-.097.495-1.944 1.164-5.609m-37.678-17.49c-1.159-.365-11.463-3.424-16.856 1.022-5.573 4.596-1.095 15.207 17.027 16.192 6.05.326 13.725-.608 19.1-2.338.97-.379 2.294-.901 2.442-1.737.368-2.092-10.649-9.663-21.713-13.14m-63.111-29.359c-9.708 6.817-3.842 24.246 19.02 29.392 2.515.564 15.551 3.143 25.223-1.808 1.256-.845 3.152-2.122 3.462-4.478 1.381-10.471-32.35-33.888-47.705-23.106M512.664 911.53c8.698-.452 29.993-3.158 39.89-18.646 1.264-2.332 2.131-5.55 2.155-8.003.275-27.547-62.95-38.201-86.735-14.618-19.047 18.89 7.261 43.189 44.69 41.267m-61.38-81.481c10.86.379 30.668-1.723 41.245-20.037 2.272-4.721 2.73-9.061 2.822-10.708 1.967-35.546-54.899-56.44-83.353-30.627-25 22.682-1.137 59.968 39.287 61.372m255.695-400.47c2.112-3.19 5.639-8.528 6.255-16.401 2.626-33.59-45.895-55.582-73.123-33.148-25.49 21.006-10.823 61 24.147 65.837 7.882 1.091 27.826 1.687 42.721-16.288m306.486 71.002l.922-3.86c-7.894 19.177-12.416 26.966-18.419 36.659 1.59-1.709 4.085-3.918 6.344-4.495a1125.35 1125.35 0 00-.481 3.523c6.438-16.286 10.82-27.377 13.89-35.215-.888 1.602-1.612 2.55-2.256 3.388m-49.595 30.764c-5.687-.29-7.578-3.556-5.95-10.277-8.2 8.49-15.417 13.513-25.74 17.91 4.175 1.36 8.63 3.351 8.672 9.82.003.307-.02.721-.028 1.031 10.262-9.233 10.262-9.233 23.046-18.484m14.938 11.695c-6.874 11.106-12.876 18.597-21.402 26.715 5.067-1.156 7.955-.749 7.727 4.763-.011.317-.055.74-.078 1.059 6.66-11.18 11.577-17.717 21.194-30.285-.32.26-.738.614-1.066.867-2.838 2.172-7.437 4.657-6.375-3.119m-48.397 27.705c-8.144 9.62-15.15 15.571-24.979 21.22 4.134 1.26 8.58 3.227 9.041 10.695.022.358.028.833.038 1.19 7.324-9.306 13.741-15.54 24.525-23.815-6.004.086-8.582-2.691-8.625-9.29m27.32 22.975c-6.979 12.13-13.19 20.456-22.148 29.683 4.107-1.04 8.516-1.643 8.854 4.462.018.317.012.74.018 1.052 7.018-12.195 12.485-19.89 22.08-32.53-6.191 4.436-8.988 3.585-8.803-2.667m-53.744 33.86c-8.177 10.788-15.42 17.726-25.839 24.738 4.977.948 9.695 2.826 10.503 10.124.04.377.067.877.097 1.252 7.632-10.382 14.251-17.398 25.298-26.807-6.768.535-9.684-2.165-10.06-9.307m32.499 22.974c-7.39 13.094-14.174 22.18-24.202 32.413 4.98-1.574 10.318-2.643 10.64 4.693.014.36.005.841.007 1.201 6.602-12.291 12.508-21.21 24.302-36.697-6.933 4.924-10.247 4.428-10.747-1.61m-57.968 38.26c-8.326 11.528-15.9 19.113-27.01 27.056 5.366.647 10.438 2.3 11.237 9.97.041.387.066.905.091 1.295 7.892-11.21 15.11-19.06 27.585-30.003-7.644 1.258-11.093-1.153-11.903-8.318m53.21 16.709c-9.537 7.87-14.059 7.982-14.668.372-8.522 15.627-16.67 26.33-29.06 38.148 7.05-3.006 13.935-5.217 13.932 3.401 0 .44-.045 1.029-.063 1.466 7.616-14.338 15.152-25.289 29.86-43.387m-78.059 44.13c-9.187 12.9-17.926 21.365-31.174 30.195 7.631-.503 14.752.301 15.18 9.474.023.47.007 1.098.01 1.566 8.622-12.717 16.977-21.733 31.922-34.471-10.161 3.338-14.927 1.317-15.938-6.765m-56.118 39.25c-10.58-.393-15.376-4.26-16.56-13.352-10.545 12.124-20.418 19.335-35.22 25.72 8.197 1.661 15.914 4.605 16.876 14.838.047.503.062 1.177.091 1.68 9.597-11.769 19.031-19.596 34.813-28.887m-79.232 15.722c-11.546-3.253-16.714-8.784-17.845-19.102-18.19 12.913-18.19 12.913-38.671 20.177 5.636 2.339 17.366 7.205 17.511 22.208.007.645-.04 1.51-.056 2.155 10.694-11.785 21.28-18.675 39.061-25.438m-129.238 22.612c11.457-13.241 24.466-20.008 46.39-24.123-14.212-6.79-19.643-15.286-19.368-30.298-15.08 14.596-29.564 19.817-51.655 18.62 8.534 4.044 26.291 12.46 24.941 32.901-.058.876-.216 2.03-.308 2.9m189.17-93.663c6.234 2.404 12.166 5.913 13.37 15.26.058.461.105 1.08.149 1.544 9.028-10.558 17.178-17.37 30.065-25.124-7.96-2.08-11.377-6.283-12.182-14.977-9.746 10.93-18.55 17.462-31.402 23.297m-64.905 23.341c10.302-10.214 19.488-15.993 33.893-21.323-9.506-4.698-13.454-10.85-14.078-21.95-10.837 10.715-20.511 16.385-34.504 20.23 4.246 2.646 13.086 8.165 14.533 21.162.064.561.108 1.316.156 1.881m-87.079-5.558c11.229-11.795 21.83-17.666 39.113-21.658-11.043-8.23-15.09-17-14.445-31.299-13.194 12.422-25.503 17.512-43.896 18.15 9.894 6.87 19.077 15.512 19.275 32.091.009.815-.033 1.902-.047 2.716m184.105-87.527c5.665 2.92 11.032 6.95 11.933 16.627.042.474.07 1.106.102 1.583 8.79-9.744 16.516-15.852 28.515-22.527-7.581-2.516-10.84-7.304-11.25-16.529-9.29 9.957-17.506 15.802-29.3 20.846m-63.111 19.049c14.506-11.024 14.506-11.024 30.916-19.084-8.19-9.342-8.19-9.342-11.616-22.968-10.213 9.714-19.61 14.835-32.436 17.676 9.774 12.333 9.774 12.333 12.7 22.88.127.45.304 1.046.436 1.496m-83.384-11.168c11.801-11.238 22.224-16.422 38.452-19.127-10.14-8.502-13.991-17.747-13.292-31.903-13.252 11.174-24.476 15.363-41.404 15.462 5.286 4.373 16.287 13.472 16.307 32.841.002.818-.045 1.911-.063 2.727m188.977-56.058c8.794-9.083 16.452-14.453 28.248-19.817-6.926-3.488-9.579-8.534-9.156-17.421-9.715 9.317-17.67 14.198-29.36 18.005 5.14 3.407 9.94 7.895 10.258 17.603.016.49.008 1.142.01 1.63m-71.225-4.44c10.337-9.48 19.318-14.252 33.14-17.625-7.928-6.23-10.732-12.974-10.004-24.055-11.408 9.58-21.242 14.005-35.072 15.778 3.803 3.227 11.716 9.946 11.952 23.895.012.602-.01 1.403-.016 2.006m-77.447-18.388c11.578-9.757 22.262-14.062 38.1-15.353-9.958-9.662-12.936-19.413-10.28-33.658-13.51 11.114-25.598 15.102-43.112 14.217 8.26 7.106 15.849 15.921 15.428 32.148-.019.795-.095 1.854-.136 2.646m171.241-55.744c3.122 2.177 9.616 6.704 9.365 16.648-.011.423-.055.985-.078 1.408 12.833-8.708 12.833-8.708 27.78-15.218-6.84-3.407-9.152-8.758-7.495-17.347-9.516 8.025-17.806 12.093-29.572 14.51m-56.675 6.856c-.022.611-.093 1.422-.133 2.03 10.16-8.052 18.996-11.733 32.606-13.564-8.155-7.037-10.362-14.442-7.616-25.54-11.912 8.863-22.336 12.279-37.18 12.183 6.693 5.488 12.82 12.301 12.323 24.891m-74.056-21.314c18.68-9.32 18.68-9.32 40.042-12.052-10.429-11.671-11.412-15.391-8.769-33.145-14.497 10.577-27.192 13.3-45.274 9.726 5.447 4.844 16.779 14.928 14.41 32.953-.1.757-.287 1.76-.41 2.518m234.767 1.597c4.682.869 4.682.869 4.732.906.496.383.496.383 1.156 3.627.035.165.088.383.129.548 3.875-5.855 3.875-5.855 20.876-27.042-.844.868-3.085 3.16-4.967 3.999-.851.375-3.48 1.201-1.526-4.112-8.62 11.891-14.898 17.636-20.4 22.074m45.04-51.61c-.036.043-.077.098-.114.145-.313.4-.593.73-.884 1.083.169-.206.347-.394.515-.596-.084.577-1.193 3.87-11.96 21.885 1.172-1.521 3.037-3.314 4.542-4.506l-1.006 2.938c5.321-12.357 5.321-12.357 7.441-17.373.44-1.07 1.027-2.507 1.466-3.577a394.686 394.686 0 01-1.672 5.64c.603-1.858 1.037-3.382 1.604-5.382.02-.077.048-.177.068-.258-9.39 42.122-16.968 63.788-25.339 72.434l-.4-3.196c-6.316 16.127-10.895 25.428-18.844 38.287 1.647-1.073 4.207-2.037 6.163-2.232l.687 2.752c.206-.535 25.423-61.065 28.16-65.384-1.963 16.506-17.997 75.182-30.953 81.56-.317-1.099-.736-2.565-1.05-3.663-6.471 16.974-11.628 27.234-21.22 42.24 2.201-1.77 5.735-3.937 8.56-3.919.062 2.377-.1 5.565-.512 7.907 4.38-12.31 27.637-65.677 34.324-72.875-.63 16.888-18.47 74.13-34.74 84.57-.732-2.198-.981-5.39-.697-7.688-6.9 19.753-15.544 35.893-28.025 52.324 8.802-7.334 8.957-7.33 12.92-7.297 1.19 14.686-17.348 44.17-25.987 55.366-5.83 7.555-25.204 31.076-29.692 16.517-2.939 5.14-6.966 12.186-12.454 19.348-14.312 18.689-50.433 48.643-53.927 26.066-11.93 16.35-21.242 24.586-39.85 35.251 6.496-1.271 16.315-3.187 19.445 1.807 10.522 16.788-53.72 62.39-75.535 53.62-8.823-3.546-9.246-22.991 42.067-50.086-15.663 2.304-21.143-.41-22.55-11.18-13.381 15.012-23.709 21.752-44.194 28.844 7.346.376 19.643 1.001 21.904 9.487 5.922 22.227-55.52 53.586-81.163 41.419-14.836-7.038-10.156-31.164 41.668-47.887-16.985-5.369-16.985-5.369-23.273-19.342-1.646 1.503-3.767 3.59-5.482 5.019-26.28 21.813-83.13 26.788-80.544-15.515-24.986 28.624-66.295 23.199-82.65 7.049-8.834-8.722-24.178-52.695 50.378-56.111-4.236-2.59-9.957-6.093-13.509-9.562-17.815-17.388-14.695-64.822 46.18-68.754-16.367-13.415-20.547-24.58-17.203-45.955-6.627 7.025-22.145 23.474-48.792 19.149-40.17-6.517-53.294-54.823-21.608-79.515 22.967-17.897 81.258-16.068 78.155 43.124 21.272-14.77 21.272-14.77 47.333-20.36-12.86-12.994-15.874-23.804-11.943-42.832-11.17 7.63-28.05 19.167-45.753 17.543-36.92-3.39-55.927-54.033-20.33-79.75 23.749-17.16 81.117-12.99 74.411 46.67 15.576-15.115 27.1-19.389 49.316-18.291-1.531-1.724-3.691-3.923-5.108-5.744-19.335-24.806-3.763-73.395 51.96-64.433-22.656-28.015-10.764-45.53 3.199-55.292 18.075-12.632 74.406-9.422 67.694 40.6 16.74-10.723 28.207-11.941 49.071-5.215-4.895-3.546-16.36-11.85-15.104-26.3 2.548-29.29 48.878-27.132 66.645-3.454.296.394 21.881 39.05-44.788 33.568 14.706 11.767 13.83 19.192 12.617 29.472 14.636-8.416 20.333-9.633 38.105-8.146-4.445-3.367-11.162-8.454-10.385-18.835 1.59-21.23 41.213-25.05 58.88-5.677 11.257 12.341-4.525 29.03-35.482 28.553 8.737 9.241 8.737 9.241 10.137 19.596 6.325-4.414 6.325-4.414 28.928-11.5-2.828-1.94-6.698-4.594-7.013-9.27-1.419-20.92 40.913-21.563 50.205-10.542 4.447 5.275-8.401 17.571-31.427 21.646 8.788 3.398 9.868 4.146 8.7 12.305 8.74-7.547 14.126-10.687 27.443-15.994-5.549.733-5.549.733-8.927-1.584-1.943-16.778 36.098-17.53 36.487-17.49-10.272 9.443-12.11 10.662-22.322 17.416 1.724-.41 4.091-.677 5.864-.724l1.266 2.438c5.45-6.577 11.54-12.58 17.116-19.043-2.435 2.643-3.718 3.27-4.129 3.137-.089-.438.41-1.941 6.916-6.447M914.446 786.853c4.902-6.187 16.885-22.266 22.28-38.044.557-2.101 1.49-5.626.205-6.75-6.487-5.665-57.19 56.564-55.93 68.647.76 7.292 16.343-2.285 33.445-23.853m-91.537-368.65c2.114-2.6 4.112-5.05 5.164-9.547 6.255-26.67-39.48-52.524-64.387-36.403-21.464 13.897-12.623 48.966 21.123 55.716 6.965 1.39 24.622 3.227 38.1-9.766m130.467 284.443c1.43 4.863 11.927-5.763 23.507-30.41 2.505-5.34 11.007-24.248 15.124-43.384 1.286-6.584.53-7.034.028-7.329-6.427 1.978-40.749 74.008-38.659 81.123M531.2 738.13c1.892-4.702 3.68-9.142 3.641-16.426-.207-39.287-56.25-59.402-84.46-30.312-26.92 27.763-4.099 71.107 37.573 71.352 8.977.053 31.165-2.239 43.246-24.614m75.49 181.709c10.557-2.245 29.639-8.314 38.81-23.733 1.31-3.047 2.547-5.928 1.78-10.047-4.564-24.57-70.088-20.71-88.747 5.227-14.468 20.112 12.536 36.12 48.156 28.553m203.687-62.943c-1.776 12.387 19.265 5.264 40.934-13.86 6.163-5.435 21.216-19.79 27.945-35.574.739-2.27 1.979-6.072.432-8.109-7.679-10.119-66.625 38.82-69.31 57.543M615.265 520.188c-39.887-2.704-55.825-48.7-25.454-73.46 30.834-25.138 81.087-.986 75.731 36.4-.533 3.717-1.954 9.409-5.699 15.418-14.78 21.257-36.099 22.218-44.578 21.642" fill="#25D8B5" fill-rule="evenodd" opacity=".158"/></svg>