<svg width="23" height="36" xmlns="http://www.w3.org/2000/svg"><path d="M11.314 23.313l2.182-3.887a.68.68 0 011.184.664l-2.688 4.787v3.615h2.338c1.13 0 1.471-.088 1.802-2.075.48-2.88 1.284-5.58 3.806-10.124.884-1.593 1.332-3.268 1.332-4.98 0-5.49-4.466-9.956-9.956-9.956-5.49 0-9.957 4.466-9.957 9.956 0 1.711.45 3.387 1.333 4.98 2.522 4.547 3.327 7.245 3.806 10.124.331 1.987.672 2.075 1.802 2.075h2.337v-3.615L7.948 20.09a.68.68 0 011.184-.664l2.182 3.887zm3.016 6.536H8.298c-.237 0-.456-.012-.658-.037v3.48c0 .354.342.642.763.642h5.824c.42 0 .76-.288.76-.642v-3.48c-.2.025-.42.037-.657.037zm-8.047-.563c-.636-.523-.919-1.407-1.126-2.646-.373-2.244-.963-4.839-3.654-9.688C.505 15.154 0 13.257 0 11.313 0 5.075 5.075 0 11.314 0c6.238 0 11.314 5.075 11.314 11.313 0 1.945-.506 3.842-1.503 5.64-2.69 4.846-3.28 7.443-3.654 9.687-.207 1.24-.49 2.123-1.126 2.646v4.006c0 1.103-.95 2-2.118 2H8.403c-1.169 0-2.12-.897-2.12-2v-4.006z" fill="#25D8B5" fill-rule="evenodd"/></svg>