<svg xmlns="http://www.w3.org/2000/svg" xmlns:xlink="http://www.w3.org/1999/xlink" width="80" height="63" viewBox="0 0 80 63">
    <defs>
        <path id="prefix__a" d="M0.529 0.393L6.868 0.393 6.868 14.309 0.529 14.309z"/>
        <path id="prefix__c" d="M0.486 0.287L24.671 0.287 24.671 60.395 0.486 60.395z"/>
        <path id="prefix__e" d="M-0.003 0.287L14.224 0.287 14.224 60.395 -0.003 60.395z"/>
        <path id="prefix__g" d="M0.269 0.033L8.108 0.033 8.108 4.809 0.269 4.809z"/>
    </defs>
    <g fill="none" fill-rule="evenodd">
        <path fill="#FFF" d="M47.218 40.243c-.003 1.168-.553 1.716-1.719 1.716h-31.13v-20.23H8.68v20.205H.05V.679h8.604v12.468h.47c3.914 0 7.832-.004 11.749 0 .921 0 1.636.524 1.822 1.343.042.188.042.39.042.584v18.198c0 .442 0 .444.457.444H38.76v-1.525H26.16c-.977 0-1.545-.501-1.667-1.48-.026-.193-.031-.39-.034-.587v-15.11c0-.944.504-1.633 1.331-1.828.142-.034.297-.04.445-.04 6.874-.003 13.747 0 20.624 0h.33v8.55H32.54v1.31c.173.008.332.02.492.02 4.16.002 8.32 0 12.476.002.921 0 1.494.425 1.67 1.24.038.177.038.368.038.55.003 5.144.003 10.284.003 15.425M4.175 51.495c0 1.084-.485 1.432-1.276 1.432h-.773v-3.865h.965c.754 0 1.084.423 1.084 1.391v1.042zm2.146 7.52V56.64c0-1.528-.35-2.533-1.412-2.863v-.036c.945-.387 1.392-1.276 1.392-2.668v-.833c0-2.086-.949-3.11-3.15-3.11H0v13.529h2.126V54.86h.734c.965 0 1.334.404 1.334 1.663v2.473c0 1.1.077 1.312.192 1.662h2.166c-.212-.503-.231-.985-.231-1.643zM12.06 57.584c0 .965-.424 1.335-1.101 1.335-.678 0-1.102-.37-1.102-1.335v-7.382c0-.968.424-1.335 1.102-1.335.677 0 1.1.367 1.1 1.335v7.382zm-1.101-10.648c-2.087 0-3.227 1.237-3.227 3.402v7.11c0 2.166 1.14 3.402 3.227 3.402 2.086 0 3.226-1.236 3.226-3.401v-7.111c0-2.165-1.14-3.402-3.226-3.402zM17.722 56.173l.928-6.688h.04l.945 6.688h-1.913zm2.476-9.045h-2.88l-2.204 13.53h1.972l.385-2.648h2.416v-.039l.387 2.687h2.125l-2.201-13.53zM27.81 57.41c0 .968-.403 1.314-1.08 1.314h-1.081v-9.662h1.08c.678 0 1.082.347 1.082 1.313v7.034zM26.77 47.127h-3.247v13.53h3.247c2.126 0 3.17-1.18 3.17-3.345v-6.842c0-2.163-1.044-3.343-3.17-3.343z" transform="translate(0 .346)"/>
        <g transform="translate(0 .346) translate(30.57 46.542)">
            <mask id="prefix__b" fill="#fff">
                <use xlink:href="#prefix__a"/>
            </mask>
            <path fill="#FFF" d="M4.53 6.54C3.136 5.32 2.693 4.605 2.693 3.62c0-.928.386-1.296 1.063-1.296.676 0 1.062.368 1.062 1.334v.696h2.01v-.56C6.83 1.63 5.806.393 3.738.393 1.67.393.567 1.63.567 3.756c0 1.546.58 2.648 2.358 4.214 1.392 1.217 1.817 1.932 1.817 3.053 0 1.005-.425 1.353-1.101 1.353-.677 0-1.103-.348-1.103-1.314v-.928H.53v.774c0 2.164 1.044 3.401 3.13 3.401 2.088 0 3.21-1.237 3.21-3.44 0-1.682-.561-2.764-2.34-4.33" mask="url(#prefix__b)"/>
        </g>
        <g transform="translate(0 .346) translate(38.374 .363)">
            <mask id="prefix__d" fill="#fff">
                <use xlink:href="#prefix__c"/>
            </mask>
            <path fill="#FFF" d="M24.671.287l-.633 4.268-.953 6.402-7.697 49.438H.486L5.38 44.397c.196-.64.782-1.074 1.447-1.074h1.01c1.576 0 2.853-1.277 2.853-2.852V27.709c0-.444.068-.886.196-1.308l4.723-15.444 1.96-6.402L18.874.287h5.797z" mask="url(#prefix__d)"/>
        </g>
        <g transform="translate(0 .346) translate(55.935 .363)">
            <mask id="prefix__f" fill="#fff">
                <use xlink:href="#prefix__e"/>
            </mask>
            <path fill="#FFF" d="M14.224.287V57.51c0 1.593-1.292 2.886-2.887 2.886H-.003l7.415-49.438.822-6.402.548-4.268h5.442z" mask="url(#prefix__f)"/>
        </g>
        <path fill="#FFF" d="M53.7 6.571L52.225 11.347 10.42 11.347 10.42 6.571z" transform="translate(0 .346)"/>
        <g transform="translate(0 .346) translate(71.545 6.867)">
            <mask id="prefix__h" fill="#fff">
                <use xlink:href="#prefix__g"/>
            </mask>
            <path fill="#FFF" d="M.269 4.81V.032h7.839L6.705 4.01c-.16.477-.605.8-1.109.8H.27z" mask="url(#prefix__h)"/>
        </g>
    </g>
</svg>
