<svg width="21" height="36" xmlns="http://www.w3.org/2000/svg"><path d="M10.306 31.892a1.852 1.852 0 11-.001-3.704 1.852 1.852 0 01.001 3.704zm6.702-6.108H3.603a.679.679 0 01-.679-.679V4.93c0-.375.304-.679.68-.679h13.404c.376 0 .68.304.68.68v20.175a.678.678 0 01-.68.68zM4.282 24.427H16.33V5.607H4.282v18.82zm-.64-23.07a2.286 2.286 0 00-2.284 2.284v28.01a2.286 2.286 0 002.283 2.283h13.33a2.286 2.286 0 002.283-2.284V3.641a2.286 2.286 0 00-2.283-2.284H3.641zm13.33 33.934H3.641A3.645 3.645 0 010 31.651V3.64A3.645 3.645 0 013.641.001h13.33a3.645 3.645 0 013.641 3.64v28.01a3.645 3.645 0 01-3.64 3.64z" fill="#25D8B5" fill-rule="evenodd"/></svg>