<svg xmlns="http://www.w3.org/2000/svg" viewBox="0 0 1920 890"><g fill="#101633"><path d="M633.9 445L298.2 890h-36.4l335.7-445L261.8 0h36.4z"/><path d="M896.1 445L525.7 890h-34l370.4-445L491.7 0h34z"/><g><path d="M1077 445L663.8 890h-16.2l413.2-445L647.6 0h16.2z"/><path d="M1208 445L773.9 890h-11.6l434.2-445L762.3 0h11.6z"/><path d="M1314.9 445L859.3 890h-9.7l455.6-445L849.6 0h9.7z"/><path d="M1395.4 445L926 890h-8.3L1387 445 917.7 0h8.3z"/><path d="M1459.7 445L980.4 890h-5.9l479.3-445L974.5 0h5.9z"/><path d="M1515.1 445l-488 445h-6l488.1-445L1021.1 0h6z"/><path d="M1558 445l-494 445h-4.7l494-445-494-445h4.7z"/><path d="M1597.7 445l-503.4 445h-3.4l503.3-445L1090.9 0h3.4z"/><path d="M1629.3 445l-506.8 445h-3.5l506.8-445L1119 0h3.5z"/><path d="M1658.2 445l-512.6 445h-1.6l512.6-445L1144 0h1.6z"/></g></g></svg>